<mxfile host="app.diagrams.net" agent="Mozilla/5.0 (Windows NT 10.0; Win64; x64) AppleWebKit/537.36 (KHTML, like Gecko) Chrome/131.0.0.0 Safari/537.36" version="24.8.8">
  <diagram name="Página-1" id="vGowUZpvYoI6yEe8FeIs">
    <mxGraphModel dx="2059" dy="1138" grid="1" gridSize="10" guides="1" tooltips="1" connect="1" arrows="1" fold="1" page="1" pageScale="1" pageWidth="827" pageHeight="1169" math="0" shadow="0">
      <root>
        <mxCell id="0" />
        <mxCell id="1" parent="0" />
        <object placeholders="1" c4Name="Api Purchase&#xa;" c4Type="SystemScopeBoundary" c4Application="Software System" label="&lt;font style=&quot;font-size: 16px&quot;&gt;&lt;b&gt;&lt;div style=&quot;text-align: left&quot;&gt;%c4Name%&lt;/div&gt;&lt;/b&gt;&lt;/font&gt;&lt;div style=&quot;text-align: left&quot;&gt;[%c4Application%]&lt;/div&gt;" id="BcG7KKhlKERpXwep-82u-1">
          <mxCell style="rounded=1;fontSize=11;whiteSpace=wrap;html=1;dashed=1;arcSize=20;fillColor=default;strokeColor=#666666;fontColor=#333333;labelBackgroundColor=none;align=left;verticalAlign=bottom;labelBorderColor=none;spacingTop=0;spacing=10;dashPattern=8 4;metaEdit=1;rotatable=1;perimeter=rectanglePerimeter;noLabel=0;labelPadding=0;allowArrows=0;connectable=1;expand=0;recursiveResize=0;editable=1;pointerEvents=0;absoluteArcSize=1;points=[[0.25,0,0],[0.5,0,0],[0.75,0,0],[1,0.25,0],[1,0.5,0],[1,0.75,0],[0.75,1,0],[0.5,1,0],[0.25,1,0],[0,0.75,0],[0,0.5,0],[0,0.25,0]];movable=1;resizable=1;deletable=1;locked=0;" parent="1" vertex="1">
            <mxGeometry x="-810" y="20" width="2460" height="1130" as="geometry" />
          </mxCell>
        </object>
        <mxCell id="BcG7KKhlKERpXwep-82u-2" value="Rendix Reverso" style="shape=table;childLayout=tableLayout;startSize=40;collapsible=0;recursiveResize=0;expand=0;fontSize=16;labelBackgroundColor=default;movable=1;resizable=1;rotatable=1;deletable=1;editable=1;locked=0;connectable=1;" parent="1" vertex="1">
          <mxGeometry x="-768" y="50" width="2408" height="964" as="geometry" />
        </mxCell>
        <mxCell id="BcG7KKhlKERpXwep-82u-3" value="Wallet (Bancard)" style="shape=tableRow;horizontal=0;swimlaneHead=0;swimlaneBody=0;top=0;left=0;strokeColor=#82b366;bottom=0;right=0;dropTarget=0;fontStyle=0;fillColor=#d5e8d4;points=[[0,0.5],[1,0.5]];portConstraint=eastwest;startSize=40;collapsible=0;recursiveResize=0;expand=0;fontSize=16;labelBackgroundColor=#d5e8d4;" parent="BcG7KKhlKERpXwep-82u-2" vertex="1">
          <mxGeometry y="40" width="2408" height="232" as="geometry" />
        </mxCell>
        <mxCell id="BcG7KKhlKERpXwep-82u-4" value="Fluxo Api Purchase" style="swimlane;swimlaneHead=0;swimlaneBody=0;fontStyle=0;strokeColor=inherit;connectable=0;fillColor=none;startSize=40;collapsible=0;recursiveResize=0;expand=0;fontSize=16;labelBackgroundColor=default;swimlaneFillColor=#d5e8d4;sketch=1;curveFitting=1;jiggle=2;" parent="BcG7KKhlKERpXwep-82u-3" vertex="1">
          <mxGeometry x="40" width="2178" height="232" as="geometry">
            <mxRectangle width="2178" height="232" as="alternateBounds" />
          </mxGeometry>
        </mxCell>
        <mxCell id="BcG7KKhlKERpXwep-82u-5" value="" style="ellipse;html=1;shape=startState;fillColor=#000000;strokeColor=#000000;textShadow=1;" parent="BcG7KKhlKERpXwep-82u-4" vertex="1">
          <mxGeometry x="51" y="121" width="30" height="30" as="geometry" />
        </mxCell>
        <mxCell id="BcG7KKhlKERpXwep-82u-6" value="" style="edgeStyle=orthogonalEdgeStyle;html=1;verticalAlign=bottom;endArrow=open;endSize=8;strokeColor=#000000;rounded=0;textShadow=1;sketch=1;curveFitting=1;jiggle=2;exitX=0.9;exitY=0.502;exitDx=0;exitDy=0;exitPerimeter=0;entryX=0;entryY=0.5;entryDx=0;entryDy=0;" parent="BcG7KKhlKERpXwep-82u-4" source="BcG7KKhlKERpXwep-82u-5" target="BcG7KKhlKERpXwep-82u-8" edge="1">
          <mxGeometry relative="1" as="geometry">
            <mxPoint x="107" y="136" as="targetPoint" />
          </mxGeometry>
        </mxCell>
        <mxCell id="BcG7KKhlKERpXwep-82u-7" style="edgeStyle=orthogonalEdgeStyle;rounded=0;orthogonalLoop=1;jettySize=auto;html=1;entryX=0;entryY=0.5;entryDx=0;entryDy=0;sketch=1;curveFitting=1;jiggle=2;" parent="BcG7KKhlKERpXwep-82u-4" source="BcG7KKhlKERpXwep-82u-8" target="BcG7KKhlKERpXwep-82u-10" edge="1">
          <mxGeometry relative="1" as="geometry">
            <mxPoint x="241" y="136" as="targetPoint" />
          </mxGeometry>
        </mxCell>
        <mxCell id="BcG7KKhlKERpXwep-82u-8" value="Portador Wallet&lt;div&gt;Bancard quer&amp;nbsp;&lt;/div&gt;&lt;div&gt;efetuar&lt;/div&gt;&lt;div&gt;pagamento via PIX&lt;/div&gt;" style="rounded=1;whiteSpace=wrap;html=1;arcSize=17;fontColor=#000000;fillColor=default;strokeColor=#000000;verticalAlign=middle;textShadow=1;sketch=1;curveFitting=1;jiggle=2;" parent="BcG7KKhlKERpXwep-82u-4" vertex="1">
          <mxGeometry x="101" y="108.5" width="120" height="55" as="geometry" />
        </mxCell>
        <mxCell id="BcG7KKhlKERpXwep-82u-9" style="edgeStyle=orthogonalEdgeStyle;rounded=0;orthogonalLoop=1;jettySize=auto;html=1;entryX=0;entryY=0.5;entryDx=0;entryDy=0;sketch=1;curveFitting=1;jiggle=2;" parent="BcG7KKhlKERpXwep-82u-4" source="BcG7KKhlKERpXwep-82u-10" target="BcG7KKhlKERpXwep-82u-12" edge="1">
          <mxGeometry relative="1" as="geometry">
            <mxPoint x="381" y="136" as="targetPoint" />
          </mxGeometry>
        </mxCell>
        <mxCell id="BcG7KKhlKERpXwep-82u-10" value="Wallet solicita&lt;div&gt;habilitação da&lt;/div&gt;&lt;div&gt;função&lt;br&gt;&lt;/div&gt;" style="rounded=1;whiteSpace=wrap;html=1;arcSize=17;fontColor=#000000;fillColor=default;strokeColor=#000000;verticalAlign=middle;textShadow=1;sketch=1;curveFitting=1;jiggle=2;" parent="BcG7KKhlKERpXwep-82u-4" vertex="1">
          <mxGeometry x="241" y="108.5" width="120" height="55" as="geometry" />
        </mxCell>
        <mxCell id="BcG7KKhlKERpXwep-82u-11" style="edgeStyle=orthogonalEdgeStyle;rounded=0;orthogonalLoop=1;jettySize=auto;html=1;sketch=1;curveFitting=1;jiggle=2;" parent="BcG7KKhlKERpXwep-82u-4" source="BcG7KKhlKERpXwep-82u-12" edge="1">
          <mxGeometry relative="1" as="geometry">
            <mxPoint x="531" y="136" as="targetPoint" />
          </mxGeometry>
        </mxCell>
        <mxCell id="BcG7KKhlKERpXwep-82u-12" value="&lt;div&gt;Efetua leitura&lt;/div&gt;&lt;div&gt;do QRCode da loja OU&lt;/div&gt;&lt;div&gt;digitação&lt;/div&gt;" style="rounded=1;whiteSpace=wrap;html=1;arcSize=17;fontColor=#000000;fillColor=default;strokeColor=#000000;verticalAlign=middle;textShadow=1;sketch=1;curveFitting=1;jiggle=2;" parent="BcG7KKhlKERpXwep-82u-4" vertex="1">
          <mxGeometry x="381" y="108.5" width="120" height="55" as="geometry" />
        </mxCell>
        <mxCell id="BcG7KKhlKERpXwep-82u-13" value="&lt;div&gt;Consulta Taxa&lt;/div&gt;&lt;div&gt;de&lt;/div&gt;&lt;div&gt;Cambio&lt;/div&gt;" style="rounded=1;whiteSpace=wrap;html=1;arcSize=17;fontColor=#000000;fillColor=default;strokeColor=#000000;verticalAlign=middle;textShadow=1;sketch=1;curveFitting=1;jiggle=2;" parent="BcG7KKhlKERpXwep-82u-4" vertex="1">
          <mxGeometry x="531" y="108.5" width="120" height="55" as="geometry" />
        </mxCell>
        <mxCell id="BcG7KKhlKERpXwep-82u-14" value="Avalia saldo&lt;div&gt;wallet x valor&lt;/div&gt;&lt;div&gt;Transação em&amp;nbsp;&lt;/div&gt;&lt;div&gt;USD&lt;/div&gt;" style="rounded=1;whiteSpace=wrap;html=1;arcSize=17;fontColor=#000000;fillColor=default;strokeColor=#000000;verticalAlign=middle;textShadow=1;sketch=1;curveFitting=1;jiggle=2;" parent="BcG7KKhlKERpXwep-82u-4" vertex="1">
          <mxGeometry x="1866" y="108.5" width="120" height="55" as="geometry" />
        </mxCell>
        <mxCell id="BcG7KKhlKERpXwep-82u-15" value="Retornar&amp;nbsp;&lt;div&gt;Erro&lt;br&gt;de Taxa não encontrada&lt;/div&gt;" style="shape=note;whiteSpace=wrap;html=1;backgroundOutline=1;darkOpacity=0.05;labelBackgroundColor=none;fontColor=#000000;fillColor=#a3a3a3;sketch=1;curveFitting=1;jiggle=2;" parent="BcG7KKhlKERpXwep-82u-4" vertex="1">
          <mxGeometry x="1105" y="138" width="100" height="80" as="geometry" />
        </mxCell>
        <mxCell id="BcG7KKhlKERpXwep-82u-16" value="Retornar&amp;nbsp;&lt;span style=&quot;background-color: initial;&quot;&gt;Erro&lt;/span&gt;&lt;div&gt;de Nome&amp;nbsp; com restrição ou comprador não encontrado&lt;/div&gt;" style="shape=note;whiteSpace=wrap;html=1;backgroundOutline=1;darkOpacity=0.05;labelBackgroundColor=none;fontColor=#000000;fillColor=#a3a3a3;sketch=1;curveFitting=1;jiggle=2;" parent="BcG7KKhlKERpXwep-82u-4" vertex="1">
          <mxGeometry x="1410" y="138.5" width="100" height="80" as="geometry" />
        </mxCell>
        <mxCell id="BcG7KKhlKERpXwep-82u-17" style="edgeStyle=orthogonalEdgeStyle;rounded=0;orthogonalLoop=1;jettySize=auto;html=1;sketch=1;curveFitting=1;jiggle=2;exitX=0.989;exitY=0.499;exitDx=0;exitDy=0;exitPerimeter=0;" parent="BcG7KKhlKERpXwep-82u-4" source="BcG7KKhlKERpXwep-82u-14" edge="1">
          <mxGeometry relative="1" as="geometry">
            <mxPoint x="2012" y="136" as="targetPoint" />
            <mxPoint x="1986" y="136" as="sourcePoint" />
          </mxGeometry>
        </mxCell>
        <mxCell id="BcG7KKhlKERpXwep-82u-18" value="" style="ellipse;html=1;shape=endState;fillColor=strokeColor;" parent="BcG7KKhlKERpXwep-82u-4" vertex="1">
          <mxGeometry x="2012" y="121" width="30" height="30" as="geometry" />
        </mxCell>
        <mxCell id="BcG7KKhlKERpXwep-82u-19" style="swimlane;swimlaneHead=0;swimlaneBody=0;fontStyle=0;strokeColor=inherit;connectable=0;fillColor=none;startSize=40;collapsible=0;recursiveResize=0;expand=0;fontSize=16;labelBackgroundColor=default;swimlaneFillColor=#d5e8d4;sketch=1;curveFitting=1;jiggle=2;" parent="BcG7KKhlKERpXwep-82u-3" vertex="1">
          <mxGeometry x="2218" width="190" height="232" as="geometry">
            <mxRectangle width="190" height="232" as="alternateBounds" />
          </mxGeometry>
        </mxCell>
        <mxCell id="BcG7KKhlKERpXwep-82u-20" value="RendimentoPay" style="shape=tableRow;horizontal=0;swimlaneHead=0;swimlaneBody=0;top=0;left=0;strokeColor=#6c8ebf;bottom=0;right=0;dropTarget=0;fontStyle=0;fillColor=#dae8fc;points=[[0,0.5],[1,0.5]];portConstraint=eastwest;startSize=40;collapsible=0;recursiveResize=0;expand=0;fontSize=16;" parent="BcG7KKhlKERpXwep-82u-2" vertex="1">
          <mxGeometry y="272" width="2408" height="229" as="geometry" />
        </mxCell>
        <mxCell id="BcG7KKhlKERpXwep-82u-21" value="" style="swimlane;swimlaneHead=0;swimlaneBody=0;fontStyle=0;connectable=0;strokeColor=#6c8ebf;fillColor=#dae8fc;startSize=0;collapsible=0;recursiveResize=0;expand=0;fontSize=16;fillStyle=auto;shadow=0;rounded=0;gradientColor=none;swimlaneLine=1;swimlaneFillColor=#dae8fc;sketch=1;curveFitting=1;jiggle=2;" parent="BcG7KKhlKERpXwep-82u-20" vertex="1">
          <mxGeometry x="40" width="2178" height="229" as="geometry">
            <mxRectangle width="2178" height="229" as="alternateBounds" />
          </mxGeometry>
        </mxCell>
        <mxCell id="BcG7KKhlKERpXwep-82u-22" value="" style="edgeStyle=orthogonalEdgeStyle;rounded=0;orthogonalLoop=1;jettySize=auto;html=1;entryX=0;entryY=0.5;entryDx=0;entryDy=0;sketch=1;curveFitting=1;jiggle=2;" parent="BcG7KKhlKERpXwep-82u-21" source="BcG7KKhlKERpXwep-82u-23" target="BcG7KKhlKERpXwep-82u-25" edge="1">
          <mxGeometry relative="1" as="geometry" />
        </mxCell>
        <mxCell id="BcG7KKhlKERpXwep-82u-23" value="&lt;div&gt;v1/external/purchase&lt;/div&gt;&lt;div&gt;Efetua&amp;nbsp;&lt;/div&gt;&lt;div&gt;&lt;br&gt;&lt;/div&gt;" style="rounded=1;whiteSpace=wrap;html=1;arcSize=17;fillColor=#dae8fc;strokeColor=#6c8ebf;verticalAlign=middle;textShadow=1;sketch=1;curveFitting=1;jiggle=2;" parent="BcG7KKhlKERpXwep-82u-21" vertex="1">
          <mxGeometry x="531" y="78" width="120" height="55" as="geometry" />
        </mxCell>
        <mxCell id="BcG7KKhlKERpXwep-82u-24" style="edgeStyle=orthogonalEdgeStyle;rounded=0;orthogonalLoop=1;jettySize=auto;html=1;sketch=1;curveFitting=1;jiggle=2;" parent="BcG7KKhlKERpXwep-82u-21" source="BcG7KKhlKERpXwep-82u-25" edge="1">
          <mxGeometry relative="1" as="geometry">
            <mxPoint x="811.0000000000002" y="105.5" as="targetPoint" />
          </mxGeometry>
        </mxCell>
        <mxCell id="BcG7KKhlKERpXwep-82u-25" value="&lt;div&gt;Incluir&lt;/div&gt;&lt;div&gt;DB&amp;nbsp;&lt;br&gt;Compras&lt;/div&gt;&lt;div&gt;&lt;br&gt;&lt;/div&gt;" style="rounded=1;whiteSpace=wrap;html=1;arcSize=17;fillColor=#dae8fc;strokeColor=#6c8ebf;verticalAlign=top;textShadow=1;sketch=1;curveFitting=1;jiggle=2;" parent="BcG7KKhlKERpXwep-82u-21" vertex="1">
          <mxGeometry x="671" y="78" width="120" height="55" as="geometry" />
        </mxCell>
        <mxCell id="BcG7KKhlKERpXwep-82u-26" value="&lt;div&gt;Traduzir&lt;/div&gt;&lt;div&gt;QRCode para&lt;/div&gt;&lt;div&gt;info PIX&lt;/div&gt;" style="rounded=1;whiteSpace=wrap;html=1;arcSize=17;fillColor=#dae8fc;strokeColor=#6c8ebf;verticalAlign=top;textShadow=1;sketch=1;curveFitting=1;jiggle=2;" parent="BcG7KKhlKERpXwep-82u-21" vertex="1">
          <mxGeometry x="811" y="78" width="120" height="55" as="geometry" />
        </mxCell>
        <mxCell id="BcG7KKhlKERpXwep-82u-27" value="&lt;div&gt;Adicionar&lt;/div&gt;&lt;div&gt;Taxas, Tarifas, Impostos (BRL, USD)&lt;/div&gt;" style="rounded=1;whiteSpace=wrap;html=1;arcSize=17;fillColor=#fff2cc;strokeColor=#d6b656;verticalAlign=top;textShadow=1;sketch=1;curveFitting=1;jiggle=2;" parent="BcG7KKhlKERpXwep-82u-21" vertex="1">
          <mxGeometry x="1870" y="77" width="120" height="55" as="geometry" />
        </mxCell>
        <mxCell id="BcG7KKhlKERpXwep-82u-28" style="edgeStyle=orthogonalEdgeStyle;rounded=0;orthogonalLoop=1;jettySize=auto;html=1;entryX=0;entryY=0.5;entryDx=0;entryDy=0;sketch=1;curveFitting=1;jiggle=2;" parent="BcG7KKhlKERpXwep-82u-21" source="BcG7KKhlKERpXwep-82u-32" target="BcG7KKhlKERpXwep-82u-34" edge="1">
          <mxGeometry relative="1" as="geometry">
            <mxPoint x="1255" y="105.5" as="targetPoint" />
          </mxGeometry>
        </mxCell>
        <mxCell id="BcG7KKhlKERpXwep-82u-29" value="No" style="edgeLabel;html=1;align=center;verticalAlign=middle;resizable=0;points=[];" parent="BcG7KKhlKERpXwep-82u-28" vertex="1" connectable="0">
          <mxGeometry x="-0.0152" y="1" relative="1" as="geometry">
            <mxPoint x="-19" y="-12" as="offset" />
          </mxGeometry>
        </mxCell>
        <mxCell id="BcG7KKhlKERpXwep-82u-30" style="edgeStyle=orthogonalEdgeStyle;rounded=0;orthogonalLoop=1;jettySize=auto;html=1;sketch=1;curveFitting=1;jiggle=2;" parent="BcG7KKhlKERpXwep-82u-21" source="BcG7KKhlKERpXwep-82u-32" edge="1">
          <mxGeometry relative="1" as="geometry">
            <mxPoint x="1152" y="-22" as="targetPoint" />
          </mxGeometry>
        </mxCell>
        <mxCell id="BcG7KKhlKERpXwep-82u-31" value="Yes" style="edgeLabel;html=1;align=center;verticalAlign=middle;resizable=0;points=[];" parent="BcG7KKhlKERpXwep-82u-30" vertex="1" connectable="0">
          <mxGeometry x="-0.4046" y="1" relative="1" as="geometry">
            <mxPoint x="-6" as="offset" />
          </mxGeometry>
        </mxCell>
        <mxCell id="BcG7KKhlKERpXwep-82u-32" value="Taxa não&amp;nbsp;&lt;div&gt;encontrada ou erro&lt;/div&gt;&lt;div&gt;no caas&lt;br&gt;&lt;div style=&quot;font-size: 9px;&quot;&gt;&lt;br&gt;&lt;/div&gt;&lt;/div&gt;" style="rhombus;whiteSpace=wrap;html=1;fillColor=#dae8fc;strokeColor=#6c8ebf;fontSize=9;rounded=0;sketch=1;curveFitting=1;jiggle=2;" parent="BcG7KKhlKERpXwep-82u-21" vertex="1">
          <mxGeometry x="1092" y="75" width="120" height="59" as="geometry" />
        </mxCell>
        <mxCell id="BcG7KKhlKERpXwep-82u-33" style="edgeStyle=orthogonalEdgeStyle;rounded=0;orthogonalLoop=1;jettySize=auto;html=1;entryX=0;entryY=0.5;entryDx=0;entryDy=0;sketch=1;curveFitting=1;jiggle=2;" parent="BcG7KKhlKERpXwep-82u-21" source="BcG7KKhlKERpXwep-82u-34" target="BcG7KKhlKERpXwep-82u-37" edge="1">
          <mxGeometry relative="1" as="geometry">
            <Array as="points">
              <mxPoint x="1375" y="105" />
            </Array>
          </mxGeometry>
        </mxCell>
        <mxCell id="BcG7KKhlKERpXwep-82u-34" value="&lt;div&gt;Solicitar&amp;nbsp;&lt;span style=&quot;background-color: initial;&quot;&gt;Validação&lt;/span&gt;&lt;/div&gt;&lt;div&gt;Nome Comprador&lt;/div&gt;" style="rounded=1;whiteSpace=wrap;html=1;arcSize=17;fillColor=#dae8fc;strokeColor=#6c8ebf;verticalAlign=top;textShadow=1;sketch=1;curveFitting=1;jiggle=2;" parent="BcG7KKhlKERpXwep-82u-21" vertex="1">
          <mxGeometry x="1250" y="77" width="120" height="55" as="geometry" />
        </mxCell>
        <mxCell id="BcG7KKhlKERpXwep-82u-35" style="edgeStyle=orthogonalEdgeStyle;rounded=0;orthogonalLoop=1;jettySize=auto;html=1;exitX=1;exitY=0.5;exitDx=0;exitDy=0;entryX=0;entryY=0.5;entryDx=0;entryDy=0;sketch=1;curveFitting=1;jiggle=2;" parent="BcG7KKhlKERpXwep-82u-21" source="BcG7KKhlKERpXwep-82u-37" target="BcG7KKhlKERpXwep-82u-38" edge="1">
          <mxGeometry relative="1" as="geometry">
            <Array as="points">
              <mxPoint x="1538" y="105" />
              <mxPoint x="1538" y="105" />
            </Array>
          </mxGeometry>
        </mxCell>
        <mxCell id="BcG7KKhlKERpXwep-82u-36" value="No" style="edgeLabel;html=1;align=center;verticalAlign=middle;resizable=0;points=[];" parent="BcG7KKhlKERpXwep-82u-35" vertex="1" connectable="0">
          <mxGeometry x="-0.5032" y="-1" relative="1" as="geometry">
            <mxPoint y="-10" as="offset" />
          </mxGeometry>
        </mxCell>
        <mxCell id="BcG7KKhlKERpXwep-82u-37" value="Nome comprador&lt;div&gt;&amp;nbsp;não&amp;nbsp;&lt;span style=&quot;background-color: initial;&quot;&gt;encontrado&lt;/span&gt;&lt;/div&gt;&lt;div&gt;&lt;span style=&quot;background-color: initial;&quot;&gt;ou erro&amp;nbsp;&lt;/span&gt;&lt;span style=&quot;background-color: initial;&quot;&gt;no caas&lt;/span&gt;&lt;/div&gt;&lt;div&gt;Ou Restrição&lt;br&gt;&lt;div&gt;&lt;div style=&quot;font-size: 9px;&quot;&gt;&lt;br&gt;&lt;/div&gt;&lt;/div&gt;&lt;/div&gt;" style="rhombus;whiteSpace=wrap;html=1;fillColor=#dae8fc;strokeColor=#6c8ebf;fontSize=9;rounded=0;sketch=1;curveFitting=1;jiggle=2;verticalAlign=middle;" parent="BcG7KKhlKERpXwep-82u-21" vertex="1">
          <mxGeometry x="1391" y="62" width="140" height="86" as="geometry" />
        </mxCell>
        <mxCell id="BcG7KKhlKERpXwep-82u-38" value="&lt;div&gt;Solicitar&amp;nbsp;&lt;span style=&quot;background-color: initial;&quot;&gt;Validação&lt;/span&gt;&lt;/div&gt;&lt;div&gt;Documento&lt;/div&gt;&lt;div&gt;Vendedor&lt;/div&gt;" style="rounded=1;whiteSpace=wrap;html=1;arcSize=17;fillColor=#dae8fc;strokeColor=#6c8ebf;verticalAlign=top;textShadow=1;sketch=1;curveFitting=1;jiggle=2;" parent="BcG7KKhlKERpXwep-82u-21" vertex="1">
          <mxGeometry x="1552" y="77" width="120" height="55" as="geometry" />
        </mxCell>
        <mxCell id="BcG7KKhlKERpXwep-82u-39" style="swimlane;swimlaneHead=0;swimlaneBody=0;fontStyle=0;connectable=0;strokeColor=#6c8ebf;fillColor=#dae8fc;startSize=0;collapsible=0;recursiveResize=0;expand=0;fontSize=16;fillStyle=auto;shadow=0;rounded=0;gradientColor=none;swimlaneLine=1;swimlaneFillColor=#dae8fc;sketch=1;curveFitting=1;jiggle=2;" parent="BcG7KKhlKERpXwep-82u-20" vertex="1">
          <mxGeometry x="2218" width="190" height="229" as="geometry">
            <mxRectangle width="190" height="229" as="alternateBounds" />
          </mxGeometry>
        </mxCell>
        <mxCell id="BcG7KKhlKERpXwep-82u-40" value="Banco rendimento" style="shape=tableRow;horizontal=0;swimlaneHead=0;swimlaneBody=0;top=0;left=0;strokeColor=#666666;bottom=0;right=0;dropTarget=0;fontStyle=0;fillColor=#fff2cc;points=[[0,0.5],[1,0.5]];portConstraint=eastwest;startSize=40;collapsible=0;recursiveResize=0;expand=0;fontSize=16;swimlaneFillColor=none;fontColor=#333333;" parent="BcG7KKhlKERpXwep-82u-2" vertex="1">
          <mxGeometry y="501" width="2408" height="231" as="geometry" />
        </mxCell>
        <mxCell id="BcG7KKhlKERpXwep-82u-41" value="" style="swimlane;swimlaneHead=0;swimlaneBody=0;fontStyle=0;connectable=0;strokeColor=inherit;fillColor=none;startSize=0;collapsible=0;recursiveResize=0;expand=0;fontSize=16;verticalAlign=middle;spacingBottom=9;swimlaneFillColor=#fff2cc;sketch=1;curveFitting=1;jiggle=2;" parent="BcG7KKhlKERpXwep-82u-40" vertex="1">
          <mxGeometry x="40" width="2178" height="231" as="geometry">
            <mxRectangle width="2178" height="231" as="alternateBounds" />
          </mxGeometry>
        </mxCell>
        <mxCell id="BcG7KKhlKERpXwep-82u-42" style="edgeStyle=orthogonalEdgeStyle;rounded=0;orthogonalLoop=1;jettySize=auto;html=1;entryX=0.5;entryY=0;entryDx=0;entryDy=0;sketch=1;curveFitting=1;jiggle=2;" parent="BcG7KKhlKERpXwep-82u-41" edge="1">
          <mxGeometry relative="1" as="geometry">
            <mxPoint x="286" y="184" as="targetPoint" />
            <mxPoint x="286" y="159" as="sourcePoint" />
          </mxGeometry>
        </mxCell>
        <mxCell id="BcG7KKhlKERpXwep-82u-43" value="&lt;div&gt;Informa taxa de câmbio (R$-USD)&lt;/div&gt;&lt;div&gt;Caas&lt;/div&gt;" style="rounded=1;whiteSpace=wrap;html=1;arcSize=17;fontColor=#000000;fillColor=default;strokeColor=#000000;verticalAlign=middle;textShadow=1;sketch=1;curveFitting=1;jiggle=2;" parent="BcG7KKhlKERpXwep-82u-41" vertex="1">
          <mxGeometry x="956" y="83" width="120" height="55" as="geometry" />
        </mxCell>
        <mxCell id="BcG7KKhlKERpXwep-82u-44" value="&lt;div&gt;QrCode&lt;/div&gt;&lt;div&gt;para&lt;/div&gt;&lt;div&gt;Json&lt;/div&gt;" style="rounded=1;whiteSpace=wrap;html=1;arcSize=17;fontColor=#000000;fillColor=default;strokeColor=#000000;verticalAlign=middle;textShadow=1;sketch=1;curveFitting=1;jiggle=2;" parent="BcG7KKhlKERpXwep-82u-41" vertex="1">
          <mxGeometry x="812" y="83" width="120" height="55" as="geometry" />
        </mxCell>
        <mxCell id="BcG7KKhlKERpXwep-82u-45" value="&lt;div&gt;Verifica Restrição&amp;nbsp;&lt;/div&gt;&lt;div&gt;documento&lt;/div&gt;&lt;div&gt;vendedor&lt;/div&gt;" style="rounded=1;whiteSpace=wrap;html=1;arcSize=17;fontColor=#000000;fillColor=default;strokeColor=#000000;verticalAlign=middle;textShadow=1;sketch=1;curveFitting=1;jiggle=2;" parent="BcG7KKhlKERpXwep-82u-41" vertex="1">
          <mxGeometry x="1552" y="83" width="120" height="55" as="geometry" />
        </mxCell>
        <mxCell id="BcG7KKhlKERpXwep-82u-46" style="swimlane;swimlaneHead=0;swimlaneBody=0;fontStyle=0;connectable=0;strokeColor=inherit;fillColor=none;startSize=0;collapsible=0;recursiveResize=0;expand=0;fontSize=16;verticalAlign=middle;spacingBottom=9;swimlaneFillColor=#fff2cc;sketch=1;curveFitting=1;jiggle=2;" parent="BcG7KKhlKERpXwep-82u-40" vertex="1">
          <mxGeometry x="2218" width="190" height="231" as="geometry">
            <mxRectangle width="190" height="231" as="alternateBounds" />
          </mxGeometry>
        </mxCell>
        <mxCell id="BcG7KKhlKERpXwep-82u-47" value="Loja" style="shape=tableRow;horizontal=0;swimlaneHead=0;swimlaneBody=0;top=0;left=0;strokeColor=#d79b00;bottom=0;right=0;dropTarget=0;fontStyle=0;fillColor=#ffe6cc;points=[[0,0.5],[1,0.5]];portConstraint=eastwest;startSize=40;collapsible=0;recursiveResize=0;expand=0;fontSize=16;" parent="BcG7KKhlKERpXwep-82u-2" vertex="1">
          <mxGeometry y="732" width="2408" height="232" as="geometry" />
        </mxCell>
        <mxCell id="BcG7KKhlKERpXwep-82u-48" style="swimlane;swimlaneHead=0;swimlaneBody=0;fontStyle=0;connectable=0;strokeColor=inherit;fillColor=none;startSize=0;collapsible=0;recursiveResize=0;expand=0;fontSize=16;swimlaneFillColor=#f1be88;sketch=1;curveFitting=1;jiggle=2;" parent="BcG7KKhlKERpXwep-82u-47" vertex="1">
          <mxGeometry x="40" width="2178" height="232" as="geometry">
            <mxRectangle width="2178" height="232" as="alternateBounds" />
          </mxGeometry>
        </mxCell>
        <mxCell id="BcG7KKhlKERpXwep-82u-49" value="&lt;div&gt;QRCode&lt;/div&gt;" style="rounded=1;whiteSpace=wrap;html=1;arcSize=17;fontColor=#000000;fillColor=default;strokeColor=#000000;verticalAlign=middle;textShadow=1;sketch=1;curveFitting=1;jiggle=2;" parent="BcG7KKhlKERpXwep-82u-48" vertex="1">
          <mxGeometry x="381" y="88.5" width="120" height="55" as="geometry" />
        </mxCell>
        <mxCell id="BcG7KKhlKERpXwep-82u-50" style="swimlane;swimlaneHead=0;swimlaneBody=0;fontStyle=0;connectable=0;strokeColor=inherit;fillColor=none;startSize=0;collapsible=0;recursiveResize=0;expand=0;fontSize=16;swimlaneFillColor=#f1be88;sketch=1;curveFitting=1;jiggle=2;" parent="BcG7KKhlKERpXwep-82u-47" vertex="1">
          <mxGeometry x="2218" width="190" height="232" as="geometry">
            <mxRectangle width="190" height="232" as="alternateBounds" />
          </mxGeometry>
        </mxCell>
        <mxCell id="BcG7KKhlKERpXwep-82u-51" style="edgeStyle=orthogonalEdgeStyle;rounded=0;orthogonalLoop=1;jettySize=auto;html=1;exitX=0.75;exitY=1;exitDx=0;exitDy=0;entryX=0.75;entryY=0;entryDx=0;entryDy=0;sketch=1;curveFitting=1;jiggle=2;" parent="BcG7KKhlKERpXwep-82u-2" source="BcG7KKhlKERpXwep-82u-12" target="BcG7KKhlKERpXwep-82u-49" edge="1">
          <mxGeometry relative="1" as="geometry">
            <mxPoint x="481" y="820" as="targetPoint" />
          </mxGeometry>
        </mxCell>
        <mxCell id="BcG7KKhlKERpXwep-82u-52" style="edgeStyle=orthogonalEdgeStyle;rounded=0;orthogonalLoop=1;jettySize=auto;html=1;exitX=0.25;exitY=0;exitDx=0;exitDy=0;entryX=0.25;entryY=1;entryDx=0;entryDy=0;dashed=1;dashPattern=8 8;sketch=1;curveFitting=1;jiggle=2;" parent="BcG7KKhlKERpXwep-82u-2" source="BcG7KKhlKERpXwep-82u-49" target="BcG7KKhlKERpXwep-82u-12" edge="1">
          <mxGeometry relative="1" as="geometry" />
        </mxCell>
        <mxCell id="BcG7KKhlKERpXwep-82u-53" style="edgeStyle=orthogonalEdgeStyle;rounded=0;orthogonalLoop=1;jettySize=auto;html=1;entryX=0.5;entryY=0;entryDx=0;entryDy=0;sketch=1;curveFitting=1;jiggle=2;" parent="BcG7KKhlKERpXwep-82u-2" source="BcG7KKhlKERpXwep-82u-13" target="BcG7KKhlKERpXwep-82u-23" edge="1">
          <mxGeometry relative="1" as="geometry">
            <mxPoint x="631" y="360" as="targetPoint" />
          </mxGeometry>
        </mxCell>
        <mxCell id="BcG7KKhlKERpXwep-82u-54" style="edgeStyle=orthogonalEdgeStyle;rounded=0;orthogonalLoop=1;jettySize=auto;html=1;entryX=0.538;entryY=1.022;entryDx=0;entryDy=0;entryPerimeter=0;dashed=1;dashPattern=8 8;sketch=1;curveFitting=1;jiggle=2;exitX=0.509;exitY=0;exitDx=0;exitDy=0;exitPerimeter=0;" parent="BcG7KKhlKERpXwep-82u-2" source="BcG7KKhlKERpXwep-82u-27" target="BcG7KKhlKERpXwep-82u-14" edge="1">
          <mxGeometry relative="1" as="geometry">
            <mxPoint x="1960" y="290" as="targetPoint" />
            <mxPoint x="1970.0344827586205" y="331.5" as="sourcePoint" />
          </mxGeometry>
        </mxCell>
        <mxCell id="BcG7KKhlKERpXwep-82u-55" style="edgeStyle=orthogonalEdgeStyle;rounded=0;orthogonalLoop=1;jettySize=auto;html=1;entryX=0.192;entryY=0.008;entryDx=0;entryDy=0;sketch=1;curveFitting=1;jiggle=2;exitX=0.205;exitY=1;exitDx=0;exitDy=0;exitPerimeter=0;entryPerimeter=0;" parent="BcG7KKhlKERpXwep-82u-2" source="BcG7KKhlKERpXwep-82u-26" target="BcG7KKhlKERpXwep-82u-44" edge="1">
          <mxGeometry relative="1" as="geometry" />
        </mxCell>
        <mxCell id="BcG7KKhlKERpXwep-82u-56" style="edgeStyle=orthogonalEdgeStyle;rounded=0;orthogonalLoop=1;jettySize=auto;html=1;exitX=0.75;exitY=0;exitDx=0;exitDy=0;entryX=0.782;entryY=0.99;entryDx=0;entryDy=0;sketch=1;curveFitting=1;jiggle=2;dashed=1;dashPattern=8 8;entryPerimeter=0;" parent="BcG7KKhlKERpXwep-82u-2" edge="1">
          <mxGeometry relative="1" as="geometry">
            <mxPoint x="938" y="584" as="sourcePoint" />
            <mxPoint x="940.8399999999999" y="404.45000000000005" as="targetPoint" />
            <Array as="points">
              <mxPoint x="940" y="585" />
              <mxPoint x="940" y="495" />
              <mxPoint x="941" y="495" />
            </Array>
          </mxGeometry>
        </mxCell>
        <mxCell id="BcG7KKhlKERpXwep-82u-57" style="edgeStyle=orthogonalEdgeStyle;rounded=0;orthogonalLoop=1;jettySize=auto;html=1;entryX=0.25;entryY=0;entryDx=0;entryDy=0;exitX=0.25;exitY=1;exitDx=0;exitDy=0;sketch=1;curveFitting=1;jiggle=2;" parent="BcG7KKhlKERpXwep-82u-2" source="BcG7KKhlKERpXwep-82u-38" target="BcG7KKhlKERpXwep-82u-45" edge="1">
          <mxGeometry relative="1" as="geometry" />
        </mxCell>
        <mxCell id="BcG7KKhlKERpXwep-82u-58" style="edgeStyle=orthogonalEdgeStyle;rounded=0;orthogonalLoop=1;jettySize=auto;html=1;entryX=0.75;entryY=1;entryDx=0;entryDy=0;exitX=0.75;exitY=0;exitDx=0;exitDy=0;sketch=1;curveFitting=1;jiggle=2;dashed=1;dashPattern=8 8;" parent="BcG7KKhlKERpXwep-82u-2" source="BcG7KKhlKERpXwep-82u-45" target="BcG7KKhlKERpXwep-82u-38" edge="1">
          <mxGeometry relative="1" as="geometry" />
        </mxCell>
        <mxCell id="BcG7KKhlKERpXwep-82u-59" style="edgeStyle=orthogonalEdgeStyle;rounded=0;orthogonalLoop=1;jettySize=auto;html=1;exitX=0.5;exitY=0;exitDx=0;exitDy=0;sketch=1;curveFitting=1;jiggle=2;entryX=0.5;entryY=1;entryDx=0;entryDy=0;entryPerimeter=0;" parent="BcG7KKhlKERpXwep-82u-2" source="BcG7KKhlKERpXwep-82u-37" target="BcG7KKhlKERpXwep-82u-16" edge="1">
          <mxGeometry relative="1" as="geometry">
            <mxPoint x="1489.8571428571427" y="260" as="targetPoint" />
          </mxGeometry>
        </mxCell>
        <mxCell id="BcG7KKhlKERpXwep-82u-60" value="Yes" style="edgeLabel;html=1;align=center;verticalAlign=middle;resizable=0;points=[];" parent="BcG7KKhlKERpXwep-82u-59" vertex="1" connectable="0">
          <mxGeometry x="0.225" y="1" relative="1" as="geometry">
            <mxPoint x="14" as="offset" />
          </mxGeometry>
        </mxCell>
        <mxCell id="BcG7KKhlKERpXwep-82u-61" style="edgeStyle=orthogonalEdgeStyle;rounded=0;orthogonalLoop=1;jettySize=auto;html=1;entryX=0.25;entryY=0;entryDx=0;entryDy=0;exitX=0.25;exitY=1;exitDx=0;exitDy=0;sketch=1;curveFitting=1;jiggle=2;" parent="1" source="BcG7KKhlKERpXwep-82u-63" target="BcG7KKhlKERpXwep-82u-43" edge="1">
          <mxGeometry relative="1" as="geometry" />
        </mxCell>
        <mxCell id="BcG7KKhlKERpXwep-82u-62" style="edgeStyle=orthogonalEdgeStyle;rounded=0;orthogonalLoop=1;jettySize=auto;html=1;entryX=0;entryY=0.5;entryDx=0;entryDy=0;sketch=1;curveFitting=1;jiggle=2;" parent="1" source="BcG7KKhlKERpXwep-82u-63" target="BcG7KKhlKERpXwep-82u-32" edge="1">
          <mxGeometry relative="1" as="geometry" />
        </mxCell>
        <mxCell id="BcG7KKhlKERpXwep-82u-63" value="&lt;div&gt;Solicitar&lt;/div&gt;&lt;div&gt;Taxa Cambio&lt;/div&gt;" style="rounded=1;whiteSpace=wrap;html=1;arcSize=17;fillColor=#dae8fc;strokeColor=#6c8ebf;verticalAlign=top;textShadow=1;sketch=1;curveFitting=1;jiggle=2;" parent="1" vertex="1">
          <mxGeometry x="226" y="399" width="120" height="55" as="geometry" />
        </mxCell>
        <mxCell id="BcG7KKhlKERpXwep-82u-64" style="edgeStyle=orthogonalEdgeStyle;rounded=0;orthogonalLoop=1;jettySize=auto;html=1;entryX=0.806;entryY=0.992;entryDx=0;entryDy=0;entryPerimeter=0;exitX=0.783;exitY=-0.039;exitDx=0;exitDy=0;exitPerimeter=0;dashed=1;dashPattern=8 8;sketch=1;curveFitting=1;jiggle=2;" parent="1" source="BcG7KKhlKERpXwep-82u-43" target="BcG7KKhlKERpXwep-82u-63" edge="1">
          <mxGeometry relative="1" as="geometry" />
        </mxCell>
        <mxCell id="BcG7KKhlKERpXwep-82u-65" style="edgeStyle=orthogonalEdgeStyle;rounded=0;orthogonalLoop=1;jettySize=auto;html=1;exitX=0.75;exitY=0;exitDx=0;exitDy=0;entryX=0.75;entryY=1;entryDx=0;entryDy=0;sketch=1;curveFitting=1;jiggle=2;dashed=1;dashPattern=8 8;" parent="1" source="BcG7KKhlKERpXwep-82u-66" target="BcG7KKhlKERpXwep-82u-34" edge="1">
          <mxGeometry relative="1" as="geometry" />
        </mxCell>
        <mxCell id="BcG7KKhlKERpXwep-82u-66" value="&lt;div&gt;Verifica Restrição&amp;nbsp;&lt;/div&gt;&lt;div&gt;Nome Comprador&lt;/div&gt;" style="rounded=1;whiteSpace=wrap;html=1;arcSize=17;fontColor=#000000;fillColor=default;strokeColor=#000000;verticalAlign=middle;textShadow=1;sketch=1;curveFitting=1;jiggle=2;" parent="1" vertex="1">
          <mxGeometry x="522" y="634" width="120" height="55" as="geometry" />
        </mxCell>
        <mxCell id="BcG7KKhlKERpXwep-82u-67" style="edgeStyle=orthogonalEdgeStyle;rounded=0;orthogonalLoop=1;jettySize=auto;html=1;entryX=0;entryY=0.5;entryDx=0;entryDy=0;sketch=1;curveFitting=1;jiggle=2;" parent="1" source="BcG7KKhlKERpXwep-82u-26" target="BcG7KKhlKERpXwep-82u-63" edge="1">
          <mxGeometry relative="1" as="geometry" />
        </mxCell>
        <mxCell id="BcG7KKhlKERpXwep-82u-68" style="edgeStyle=orthogonalEdgeStyle;rounded=0;orthogonalLoop=1;jettySize=auto;html=1;entryX=0.25;entryY=0;entryDx=0;entryDy=0;sketch=1;curveFitting=1;jiggle=2;exitX=0.25;exitY=1;exitDx=0;exitDy=0;" parent="1" source="BcG7KKhlKERpXwep-82u-34" target="BcG7KKhlKERpXwep-82u-66" edge="1">
          <mxGeometry relative="1" as="geometry" />
        </mxCell>
        <mxCell id="BcG7KKhlKERpXwep-82u-69" value="Retornar&amp;nbsp;&lt;span style=&quot;background-color: initial;&quot;&gt;Erro&lt;/span&gt;&lt;div&gt;de Vendedor com&lt;/div&gt;&lt;div&gt;Restrição ou não&lt;/div&gt;&lt;div&gt;Encontrado&lt;/div&gt;" style="shape=note;whiteSpace=wrap;html=1;backgroundOutline=1;darkOpacity=0.05;labelBackgroundColor=none;fontColor=#000000;fillColor=#a3a3a3;sketch=1;curveFitting=1;jiggle=2;" parent="1" vertex="1">
          <mxGeometry x="989" y="228.5" width="100" height="80" as="geometry" />
        </mxCell>
        <mxCell id="BcG7KKhlKERpXwep-82u-70" style="edgeStyle=orthogonalEdgeStyle;rounded=0;orthogonalLoop=1;jettySize=auto;html=1;exitX=0.5;exitY=0;exitDx=0;exitDy=0;sketch=1;curveFitting=1;jiggle=2;" parent="1" source="BcG7KKhlKERpXwep-82u-73" edge="1">
          <mxGeometry relative="1" as="geometry">
            <mxPoint x="1038.8571428571427" y="310" as="targetPoint" />
          </mxGeometry>
        </mxCell>
        <mxCell id="BcG7KKhlKERpXwep-82u-71" value="Yes" style="edgeLabel;html=1;align=center;verticalAlign=middle;resizable=0;points=[];" parent="BcG7KKhlKERpXwep-82u-70" vertex="1" connectable="0">
          <mxGeometry x="0.225" y="1" relative="1" as="geometry">
            <mxPoint x="14" as="offset" />
          </mxGeometry>
        </mxCell>
        <mxCell id="BcG7KKhlKERpXwep-82u-72" style="edgeStyle=orthogonalEdgeStyle;rounded=0;orthogonalLoop=1;jettySize=auto;html=1;sketch=1;curveFitting=1;jiggle=2;" parent="1" source="BcG7KKhlKERpXwep-82u-73" target="BcG7KKhlKERpXwep-82u-27" edge="1">
          <mxGeometry relative="1" as="geometry" />
        </mxCell>
        <mxCell id="BcG7KKhlKERpXwep-82u-73" value="Documento&lt;div&gt;Vendedor&lt;div&gt;&amp;nbsp;não&amp;nbsp;&lt;span style=&quot;background-color: initial;&quot;&gt;encontrado&lt;/span&gt;&lt;/div&gt;&lt;div&gt;&lt;span style=&quot;background-color: initial;&quot;&gt;ou erro&amp;nbsp;&lt;/span&gt;&lt;span style=&quot;background-color: initial;&quot;&gt;no caas ou&lt;/span&gt;&lt;/div&gt;&lt;div&gt;Restrição&lt;br&gt;&lt;div&gt;&lt;div style=&quot;font-size: 9px;&quot;&gt;&lt;br&gt;&lt;/div&gt;&lt;/div&gt;&lt;/div&gt;&lt;/div&gt;" style="rhombus;whiteSpace=wrap;html=1;fillColor=#dae8fc;strokeColor=#6c8ebf;fontSize=9;rounded=0;sketch=1;curveFitting=1;jiggle=2;verticalAlign=bottom;" parent="1" vertex="1">
          <mxGeometry x="969" y="385" width="142" height="83" as="geometry" />
        </mxCell>
        <mxCell id="BcG7KKhlKERpXwep-82u-74" style="edgeStyle=orthogonalEdgeStyle;rounded=0;orthogonalLoop=1;jettySize=auto;html=1;entryX=0;entryY=0.5;entryDx=0;entryDy=0;sketch=1;curveFitting=1;jiggle=2;" parent="1" source="BcG7KKhlKERpXwep-82u-38" target="BcG7KKhlKERpXwep-82u-73" edge="1">
          <mxGeometry relative="1" as="geometry">
            <mxPoint x="950" y="425.4999999999999" as="targetPoint" />
          </mxGeometry>
        </mxCell>
        <object placeholders="1" c4Name="Api Pay&#xa;" c4Type="SystemScopeBoundary" c4Application="Software System" label="&lt;font style=&quot;font-size: 16px&quot;&gt;&lt;b&gt;&lt;div style=&quot;text-align: left&quot;&gt;%c4Name%&lt;/div&gt;&lt;/b&gt;&lt;/font&gt;&lt;div style=&quot;text-align: left&quot;&gt;[%c4Application%]&lt;/div&gt;" id="BcG7KKhlKERpXwep-82u-75">
          <mxCell style="rounded=1;fontSize=11;whiteSpace=wrap;html=1;dashed=1;arcSize=20;fillColor=default;strokeColor=#666666;fontColor=#333333;labelBackgroundColor=none;align=left;verticalAlign=bottom;labelBorderColor=none;spacingTop=0;spacing=10;dashPattern=8 4;metaEdit=1;rotatable=1;perimeter=rectanglePerimeter;noLabel=0;labelPadding=0;allowArrows=0;connectable=1;expand=0;recursiveResize=0;editable=1;pointerEvents=0;absoluteArcSize=1;points=[[0.25,0,0],[0.5,0,0],[0.75,0,0],[1,0.25,0],[1,0.5,0],[1,0.75,0],[0.75,1,0],[0.5,1,0],[0.25,1,0],[0,0.75,0],[0,0.5,0],[0,0.25,0]];movable=1;resizable=1;deletable=1;locked=0;" parent="1" vertex="1">
            <mxGeometry x="-800" y="1180" width="2450" height="1130" as="geometry" />
          </mxCell>
        </object>
        <mxCell id="BcG7KKhlKERpXwep-82u-76" value="Rendix Reverso" style="shape=table;childLayout=tableLayout;startSize=40;collapsible=0;recursiveResize=0;expand=0;fontSize=16;labelBackgroundColor=default;movable=1;resizable=1;rotatable=1;deletable=1;editable=1;locked=0;connectable=1;" parent="1" vertex="1">
          <mxGeometry x="-765" y="1244" width="2405" height="964" as="geometry" />
        </mxCell>
        <mxCell id="BcG7KKhlKERpXwep-82u-77" value="Wallet (Bancard)" style="shape=tableRow;horizontal=0;swimlaneHead=0;swimlaneBody=0;top=0;left=0;strokeColor=#82b366;bottom=0;right=0;dropTarget=0;fontStyle=0;fillColor=#d5e8d4;points=[[0,0.5],[1,0.5]];portConstraint=eastwest;startSize=40;collapsible=0;recursiveResize=0;expand=0;fontSize=16;labelBackgroundColor=#d5e8d4;" parent="BcG7KKhlKERpXwep-82u-76" vertex="1">
          <mxGeometry y="40" width="2405" height="232" as="geometry" />
        </mxCell>
        <mxCell id="BcG7KKhlKERpXwep-82u-78" value="Fluxo Api Purchase" style="swimlane;swimlaneHead=0;swimlaneBody=0;fontStyle=0;strokeColor=inherit;connectable=0;fillColor=none;startSize=40;collapsible=0;recursiveResize=0;expand=0;fontSize=16;labelBackgroundColor=default;swimlaneFillColor=#d5e8d4;sketch=1;curveFitting=1;jiggle=2;" parent="BcG7KKhlKERpXwep-82u-77" vertex="1">
          <mxGeometry x="40" width="2176" height="232" as="geometry">
            <mxRectangle width="2176" height="232" as="alternateBounds" />
          </mxGeometry>
        </mxCell>
        <mxCell id="BcG7KKhlKERpXwep-82u-79" style="swimlane;swimlaneHead=0;swimlaneBody=0;fontStyle=0;strokeColor=inherit;connectable=0;fillColor=none;startSize=40;collapsible=0;recursiveResize=0;expand=0;fontSize=16;labelBackgroundColor=default;swimlaneFillColor=#d5e8d4;sketch=1;curveFitting=1;jiggle=2;" parent="BcG7KKhlKERpXwep-82u-77" vertex="1">
          <mxGeometry x="2216" width="189" height="232" as="geometry">
            <mxRectangle width="189" height="232" as="alternateBounds" />
          </mxGeometry>
        </mxCell>
        <mxCell id="BcG7KKhlKERpXwep-82u-80" value="RendimentoPay" style="shape=tableRow;horizontal=0;swimlaneHead=0;swimlaneBody=0;top=0;left=0;strokeColor=#6c8ebf;bottom=0;right=0;dropTarget=0;fontStyle=0;fillColor=#dae8fc;points=[[0,0.5],[1,0.5]];portConstraint=eastwest;startSize=40;collapsible=0;recursiveResize=0;expand=0;fontSize=16;" parent="BcG7KKhlKERpXwep-82u-76" vertex="1">
          <mxGeometry y="272" width="2405" height="229" as="geometry" />
        </mxCell>
        <mxCell id="BcG7KKhlKERpXwep-82u-81" value="" style="swimlane;swimlaneHead=0;swimlaneBody=0;fontStyle=0;connectable=0;strokeColor=#6c8ebf;fillColor=#dae8fc;startSize=0;collapsible=0;recursiveResize=0;expand=0;fontSize=16;fillStyle=auto;shadow=0;rounded=0;gradientColor=none;swimlaneLine=1;swimlaneFillColor=#dae8fc;sketch=1;curveFitting=1;jiggle=2;" parent="BcG7KKhlKERpXwep-82u-80" vertex="1">
          <mxGeometry x="40" width="2176" height="229" as="geometry">
            <mxRectangle width="2176" height="229" as="alternateBounds" />
          </mxGeometry>
        </mxCell>
        <mxCell id="BcG7KKhlKERpXwep-82u-82" style="swimlane;swimlaneHead=0;swimlaneBody=0;fontStyle=0;connectable=0;strokeColor=#6c8ebf;fillColor=#dae8fc;startSize=0;collapsible=0;recursiveResize=0;expand=0;fontSize=16;fillStyle=auto;shadow=0;rounded=0;gradientColor=none;swimlaneLine=1;swimlaneFillColor=#dae8fc;sketch=1;curveFitting=1;jiggle=2;" parent="BcG7KKhlKERpXwep-82u-80" vertex="1">
          <mxGeometry x="2216" width="189" height="229" as="geometry">
            <mxRectangle width="189" height="229" as="alternateBounds" />
          </mxGeometry>
        </mxCell>
        <mxCell id="BcG7KKhlKERpXwep-82u-83" value="Banco rendimento" style="shape=tableRow;horizontal=0;swimlaneHead=0;swimlaneBody=0;top=0;left=0;strokeColor=#666666;bottom=0;right=0;dropTarget=0;fontStyle=0;fillColor=#fff2cc;points=[[0,0.5],[1,0.5]];portConstraint=eastwest;startSize=40;collapsible=0;recursiveResize=0;expand=0;fontSize=16;swimlaneFillColor=none;fontColor=#333333;" parent="BcG7KKhlKERpXwep-82u-76" vertex="1">
          <mxGeometry y="501" width="2405" height="231" as="geometry" />
        </mxCell>
        <mxCell id="BcG7KKhlKERpXwep-82u-84" value="" style="swimlane;swimlaneHead=0;swimlaneBody=0;fontStyle=0;connectable=0;strokeColor=inherit;fillColor=none;startSize=0;collapsible=0;recursiveResize=0;expand=0;fontSize=16;verticalAlign=middle;spacingBottom=9;swimlaneFillColor=#fff2cc;sketch=1;curveFitting=1;jiggle=2;" parent="BcG7KKhlKERpXwep-82u-83" vertex="1">
          <mxGeometry x="40" width="2176" height="231" as="geometry">
            <mxRectangle width="2176" height="231" as="alternateBounds" />
          </mxGeometry>
        </mxCell>
        <mxCell id="BcG7KKhlKERpXwep-82u-85" style="swimlane;swimlaneHead=0;swimlaneBody=0;fontStyle=0;connectable=0;strokeColor=inherit;fillColor=none;startSize=0;collapsible=0;recursiveResize=0;expand=0;fontSize=16;verticalAlign=middle;spacingBottom=9;swimlaneFillColor=#fff2cc;sketch=1;curveFitting=1;jiggle=2;" parent="BcG7KKhlKERpXwep-82u-83" vertex="1">
          <mxGeometry x="2216" width="189" height="231" as="geometry">
            <mxRectangle width="189" height="231" as="alternateBounds" />
          </mxGeometry>
        </mxCell>
        <mxCell id="BcG7KKhlKERpXwep-82u-86" value="Loja" style="shape=tableRow;horizontal=0;swimlaneHead=0;swimlaneBody=0;top=0;left=0;strokeColor=#d79b00;bottom=0;right=0;dropTarget=0;fontStyle=0;fillColor=#ffe6cc;points=[[0,0.5],[1,0.5]];portConstraint=eastwest;startSize=40;collapsible=0;recursiveResize=0;expand=0;fontSize=16;" parent="BcG7KKhlKERpXwep-82u-76" vertex="1">
          <mxGeometry y="732" width="2405" height="232" as="geometry" />
        </mxCell>
        <mxCell id="BcG7KKhlKERpXwep-82u-87" style="swimlane;swimlaneHead=0;swimlaneBody=0;fontStyle=0;connectable=0;strokeColor=inherit;fillColor=none;startSize=0;collapsible=0;recursiveResize=0;expand=0;fontSize=16;swimlaneFillColor=#f1be88;sketch=1;curveFitting=1;jiggle=2;" parent="BcG7KKhlKERpXwep-82u-86" vertex="1">
          <mxGeometry x="40" width="2176" height="232" as="geometry">
            <mxRectangle width="2176" height="232" as="alternateBounds" />
          </mxGeometry>
        </mxCell>
        <mxCell id="BcG7KKhlKERpXwep-82u-88" style="swimlane;swimlaneHead=0;swimlaneBody=0;fontStyle=0;connectable=0;strokeColor=inherit;fillColor=none;startSize=0;collapsible=0;recursiveResize=0;expand=0;fontSize=16;swimlaneFillColor=#f1be88;sketch=1;curveFitting=1;jiggle=2;" parent="BcG7KKhlKERpXwep-82u-86" vertex="1">
          <mxGeometry x="2216" width="189" height="232" as="geometry">
            <mxRectangle width="189" height="232" as="alternateBounds" />
          </mxGeometry>
        </mxCell>
        <mxCell id="BcG7KKhlKERpXwep-82u-89" value="Saldo OK - Envia&lt;div&gt;transação para&lt;/div&gt;&lt;div&gt;aprovação&lt;br&gt;&lt;/div&gt;" style="rounded=1;whiteSpace=wrap;html=1;arcSize=17;fontColor=#000000;fillColor=default;strokeColor=#000000;verticalAlign=middle;textShadow=1;sketch=1;curveFitting=1;jiggle=2;" parent="1" vertex="1">
          <mxGeometry x="-629" y="1400" width="120" height="55" as="geometry" />
        </mxCell>
        <mxCell id="BcG7KKhlKERpXwep-82u-90" value="Dados do portador +&amp;nbsp;&lt;div&gt;valor+ dados PIX&lt;/div&gt;" style="shape=note;whiteSpace=wrap;html=1;backgroundOutline=1;darkOpacity=0.05;labelBackgroundColor=none;fontColor=#000000;fillColor=#9e9e9e;sketch=1;curveFitting=1;jiggle=2;" parent="1" vertex="1">
          <mxGeometry x="-481" y="1387" width="100" height="80" as="geometry" />
        </mxCell>
        <mxCell id="BcG7KKhlKERpXwep-82u-91" style="edgeStyle=orthogonalEdgeStyle;rounded=0;orthogonalLoop=1;jettySize=auto;html=1;entryX=0.008;entryY=0.503;entryDx=0;entryDy=0;entryPerimeter=0;" parent="1" source="BcG7KKhlKERpXwep-82u-89" target="BcG7KKhlKERpXwep-82u-90" edge="1">
          <mxGeometry relative="1" as="geometry" />
        </mxCell>
        <mxCell id="BcG7KKhlKERpXwep-82u-92" style="edgeStyle=orthogonalEdgeStyle;rounded=0;orthogonalLoop=1;jettySize=auto;html=1;sketch=1;curveFitting=1;jiggle=2;" parent="1" source="BcG7KKhlKERpXwep-82u-93" edge="1">
          <mxGeometry relative="1" as="geometry">
            <mxPoint x="1301" y="2065" as="targetPoint" />
          </mxGeometry>
        </mxCell>
        <mxCell id="BcG7KKhlKERpXwep-82u-93" value="&lt;div&gt;Exibe transação&lt;/div&gt;&lt;div&gt;com sucesso + comprovante&lt;/div&gt;" style="rounded=1;whiteSpace=wrap;html=1;arcSize=17;fontColor=#000000;fillColor=default;strokeColor=#000000;verticalAlign=middle;textShadow=1;sketch=1;curveFitting=1;jiggle=2;" parent="1" vertex="1">
          <mxGeometry x="1150" y="1390" width="120" height="55" as="geometry" />
        </mxCell>
        <mxCell id="BcG7KKhlKERpXwep-82u-94" style="edgeStyle=orthogonalEdgeStyle;rounded=0;orthogonalLoop=1;jettySize=auto;html=1;entryX=0;entryY=0.5;entryDx=0;entryDy=0;sketch=1;curveFitting=1;jiggle=2;" parent="1" source="BcG7KKhlKERpXwep-82u-95" target="BcG7KKhlKERpXwep-82u-96" edge="1">
          <mxGeometry relative="1" as="geometry" />
        </mxCell>
        <mxCell id="BcG7KKhlKERpXwep-82u-95" value="&lt;div&gt;Exibe transação&lt;/div&gt;&lt;div&gt;Não autorizada&lt;/div&gt;&lt;div&gt;Saldo Insuficiente&lt;/div&gt;" style="rounded=1;whiteSpace=wrap;html=1;arcSize=17;fontColor=#000000;fillColor=default;strokeColor=#000000;verticalAlign=middle;textShadow=1;sketch=1;curveFitting=1;jiggle=2;" parent="1" vertex="1">
          <mxGeometry x="-71" y="1394" width="120" height="55" as="geometry" />
        </mxCell>
        <mxCell id="BcG7KKhlKERpXwep-82u-96" value="" style="ellipse;html=1;shape=endState;fillColor=strokeColor;" parent="1" vertex="1">
          <mxGeometry x="78" y="1406.5" width="30" height="30" as="geometry" />
        </mxCell>
        <mxCell id="BcG7KKhlKERpXwep-82u-97" style="edgeStyle=orthogonalEdgeStyle;rounded=0;orthogonalLoop=1;jettySize=auto;html=1;exitX=1;exitY=0.5;exitDx=0;exitDy=0;sketch=1;curveFitting=1;jiggle=2;entryX=0;entryY=0.5;entryDx=0;entryDy=0;" parent="1" source="BcG7KKhlKERpXwep-82u-98" target="BcG7KKhlKERpXwep-82u-99" edge="1">
          <mxGeometry relative="1" as="geometry">
            <mxPoint x="710" y="1421.1481481481483" as="targetPoint" />
          </mxGeometry>
        </mxCell>
        <mxCell id="BcG7KKhlKERpXwep-82u-98" value="&lt;div&gt;Exibe transação&amp;nbsp;&lt;/div&gt;&lt;div&gt;Não&amp;nbsp;&lt;span style=&quot;background-color: initial;&quot;&gt;Autorizada&lt;/span&gt;&lt;/div&gt;&lt;div&gt;Erro ao registrar boleto&lt;/div&gt;" style="rounded=1;whiteSpace=wrap;html=1;arcSize=17;fontColor=#000000;fillColor=default;strokeColor=#000000;verticalAlign=middle;textShadow=1;sketch=1;curveFitting=1;jiggle=2;" parent="1" vertex="1">
          <mxGeometry x="405" y="1393.5" width="120" height="55" as="geometry" />
        </mxCell>
        <mxCell id="BcG7KKhlKERpXwep-82u-99" value="" style="ellipse;html=1;shape=endState;fillColor=strokeColor;" parent="1" vertex="1">
          <mxGeometry x="548" y="1406" width="30" height="30" as="geometry" />
        </mxCell>
        <mxCell id="BcG7KKhlKERpXwep-82u-100" value="" style="ellipse;html=1;shape=endState;fillColor=strokeColor;" parent="1" vertex="1">
          <mxGeometry x="-115" y="1408.5" width="30" height="30" as="geometry" />
        </mxCell>
        <mxCell id="BcG7KKhlKERpXwep-82u-101" style="edgeStyle=orthogonalEdgeStyle;rounded=0;orthogonalLoop=1;jettySize=auto;html=1;exitX=1;exitY=0.5;exitDx=0;exitDy=0;sketch=1;curveFitting=1;jiggle=2;entryX=0;entryY=0.5;entryDx=0;entryDy=0;" parent="1" source="BcG7KKhlKERpXwep-82u-102" target="BcG7KKhlKERpXwep-82u-103" edge="1">
          <mxGeometry relative="1" as="geometry">
            <mxPoint x="1276" y="1417.6481481481483" as="targetPoint" />
          </mxGeometry>
        </mxCell>
        <mxCell id="BcG7KKhlKERpXwep-82u-102" value="&lt;div&gt;Exibe transação&amp;nbsp;&lt;/div&gt;&lt;div&gt;Não&amp;nbsp;&lt;span style=&quot;background-color: initial;&quot;&gt;Autorizada&lt;/span&gt;&lt;/div&gt;&lt;div&gt;Erro ao Efetuar Pagamento&lt;/div&gt;" style="rounded=1;whiteSpace=wrap;html=1;arcSize=17;fontColor=#000000;fillColor=default;strokeColor=#000000;verticalAlign=middle;textShadow=1;sketch=1;curveFitting=1;jiggle=2;" parent="1" vertex="1">
          <mxGeometry x="968" y="1390" width="120" height="55" as="geometry" />
        </mxCell>
        <mxCell id="BcG7KKhlKERpXwep-82u-103" value="" style="ellipse;html=1;shape=endState;fillColor=strokeColor;" parent="1" vertex="1">
          <mxGeometry x="1114" y="1402.5" width="30" height="30" as="geometry" />
        </mxCell>
        <mxCell id="BcG7KKhlKERpXwep-82u-104" value="&lt;div&gt;API pay/{id-buy}&lt;/div&gt;&lt;div&gt;Carregar compra&lt;/div&gt;&lt;div&gt;pelo ID&lt;/div&gt;" style="rounded=1;whiteSpace=wrap;html=1;arcSize=17;fillColor=#dae8fc;strokeColor=#6c8ebf;verticalAlign=middle;textShadow=1;sketch=1;curveFitting=1;jiggle=2;" parent="1" vertex="1">
          <mxGeometry x="-629" y="1596" width="120" height="55" as="geometry" />
        </mxCell>
        <mxCell id="BcG7KKhlKERpXwep-82u-105" style="edgeStyle=orthogonalEdgeStyle;rounded=0;orthogonalLoop=1;jettySize=auto;html=1;entryX=0;entryY=0.5;entryDx=0;entryDy=0;sketch=1;curveFitting=1;jiggle=2;exitX=1;exitY=0.5;exitDx=0;exitDy=0;" parent="1" source="BcG7KKhlKERpXwep-82u-109" target="BcG7KKhlKERpXwep-82u-112" edge="1">
          <mxGeometry relative="1" as="geometry">
            <Array as="points">
              <mxPoint x="-129" y="1688" />
              <mxPoint x="-129" y="1626" />
              <mxPoint x="-108" y="1626" />
              <mxPoint x="-108" y="1688" />
            </Array>
          </mxGeometry>
        </mxCell>
        <mxCell id="BcG7KKhlKERpXwep-82u-106" value="Yes" style="edgeLabel;html=1;align=center;verticalAlign=middle;resizable=0;points=[];" parent="BcG7KKhlKERpXwep-82u-105" vertex="1" connectable="0">
          <mxGeometry x="0.6256" relative="1" as="geometry">
            <mxPoint x="-13" y="7" as="offset" />
          </mxGeometry>
        </mxCell>
        <mxCell id="BcG7KKhlKERpXwep-82u-107" style="edgeStyle=orthogonalEdgeStyle;rounded=0;orthogonalLoop=1;jettySize=auto;html=1;entryX=0;entryY=0.5;entryDx=0;entryDy=0;sketch=1;curveFitting=1;jiggle=2;exitX=1;exitY=0.5;exitDx=0;exitDy=0;" parent="1" source="BcG7KKhlKERpXwep-82u-109" target="BcG7KKhlKERpXwep-82u-110" edge="1">
          <mxGeometry relative="1" as="geometry">
            <Array as="points">
              <mxPoint x="-129" y="1688" />
              <mxPoint x="-129" y="1626" />
              <mxPoint x="-108" y="1626" />
              <mxPoint x="-108" y="1577" />
            </Array>
          </mxGeometry>
        </mxCell>
        <mxCell id="BcG7KKhlKERpXwep-82u-108" value="No" style="edgeLabel;html=1;align=center;verticalAlign=middle;resizable=0;points=[];" parent="BcG7KKhlKERpXwep-82u-107" vertex="1" connectable="0">
          <mxGeometry x="0.4053" y="1" relative="1" as="geometry">
            <mxPoint x="-9" y="-18" as="offset" />
          </mxGeometry>
        </mxCell>
        <mxCell id="BcG7KKhlKERpXwep-82u-109" value="Saldo&amp;nbsp;&lt;div style=&quot;font-size: 9px;&quot;&gt;&amp;gt;&amp;nbsp;&lt;/div&gt;&lt;div style=&quot;font-size: 9px;&quot;&gt;valor solicitado&lt;/div&gt;" style="rhombus;whiteSpace=wrap;html=1;fillColor=#dae8fc;strokeColor=#6c8ebf;fontSize=9;rounded=0;sketch=1;curveFitting=1;jiggle=2;" parent="1" vertex="1">
          <mxGeometry x="-263" y="1658" width="120" height="59" as="geometry" />
        </mxCell>
        <mxCell id="BcG7KKhlKERpXwep-82u-110" value="&lt;div&gt;Saldo&lt;/div&gt;&lt;div&gt;Insuficiente&lt;/div&gt;&lt;div&gt;Nega transação&lt;/div&gt;" style="rounded=1;whiteSpace=wrap;html=1;arcSize=17;fillColor=#dae8fc;strokeColor=#6c8ebf;verticalAlign=middle;textShadow=1;sketch=1;curveFitting=1;jiggle=2;" parent="1" vertex="1">
          <mxGeometry x="-71" y="1549" width="120" height="55" as="geometry" />
        </mxCell>
        <mxCell id="BcG7KKhlKERpXwep-82u-111" style="edgeStyle=orthogonalEdgeStyle;rounded=0;orthogonalLoop=1;jettySize=auto;html=1;entryX=0;entryY=0.5;entryDx=0;entryDy=0;sketch=1;curveFitting=1;jiggle=2;" parent="1" source="BcG7KKhlKERpXwep-82u-112" target="BcG7KKhlKERpXwep-82u-113" edge="1">
          <mxGeometry relative="1" as="geometry">
            <Array as="points">
              <mxPoint x="69" y="1689" />
              <mxPoint x="69" y="1627" />
            </Array>
          </mxGeometry>
        </mxCell>
        <mxCell id="BcG7KKhlKERpXwep-82u-112" value="&lt;div&gt;Saldo OK -&lt;/div&gt;&lt;div&gt;Aprova&lt;/div&gt;&lt;div&gt;transação&lt;/div&gt;" style="rounded=1;whiteSpace=wrap;html=1;arcSize=17;fillColor=#dae8fc;strokeColor=#6c8ebf;verticalAlign=middle;textShadow=1;sketch=1;curveFitting=1;jiggle=2;" parent="1" vertex="1">
          <mxGeometry x="-71" y="1661" width="120" height="55" as="geometry" />
        </mxCell>
        <mxCell id="BcG7KKhlKERpXwep-82u-113" value="&lt;div&gt;API&amp;nbsp;&lt;span style=&quot;background-color: initial;&quot;&gt;Pré-boleto&lt;/span&gt;&lt;/div&gt;&lt;div&gt;para débito&lt;/div&gt;&lt;div&gt;do valor da transação da&lt;/div&gt;&lt;div&gt;Ordem&lt;/div&gt;" style="rounded=1;whiteSpace=wrap;html=1;arcSize=17;fillColor=#dae8fc;strokeColor=#6c8ebf;verticalAlign=middle;textShadow=1;sketch=1;curveFitting=1;jiggle=2;" parent="1" vertex="1">
          <mxGeometry x="85" y="1588" width="120" height="78" as="geometry" />
        </mxCell>
        <mxCell id="BcG7KKhlKERpXwep-82u-114" value="&lt;div&gt;Consultar o Saldo e&amp;nbsp;&lt;/div&gt;&lt;div&gt;pre reserva&amp;nbsp;&lt;/div&gt;&lt;div&gt;na API Ordem&lt;/div&gt;" style="rounded=1;whiteSpace=wrap;html=1;arcSize=17;fillColor=#fff2cc;strokeColor=#d6b656;verticalAlign=middle;textShadow=1;sketch=1;curveFitting=1;jiggle=2;" parent="1" vertex="1">
          <mxGeometry x="-472" y="1596" width="120" height="55" as="geometry" />
        </mxCell>
        <mxCell id="BcG7KKhlKERpXwep-82u-115" style="edgeStyle=orthogonalEdgeStyle;rounded=0;orthogonalLoop=1;jettySize=auto;html=1;exitX=1;exitY=0.5;exitDx=0;exitDy=0;entryX=0;entryY=0.5;entryDx=0;entryDy=0;" parent="1" source="BcG7KKhlKERpXwep-82u-104" target="BcG7KKhlKERpXwep-82u-114" edge="1">
          <mxGeometry relative="1" as="geometry" />
        </mxCell>
        <mxCell id="BcG7KKhlKERpXwep-82u-116" value="&lt;div&gt;&lt;span style=&quot;background-color: initial;&quot;&gt;Executar&lt;/span&gt;&lt;br&gt;&lt;/div&gt;&lt;div&gt;&lt;div&gt;processo&lt;/div&gt;&lt;div&gt;Rollback&lt;/div&gt;&lt;/div&gt;" style="rounded=1;whiteSpace=wrap;html=1;arcSize=17;fillColor=#dae8fc;strokeColor=#6c8ebf;verticalAlign=middle;textShadow=1;sketch=1;curveFitting=1;jiggle=2;" parent="1" vertex="1">
          <mxGeometry x="405" y="1545" width="120" height="50" as="geometry" />
        </mxCell>
        <mxCell id="BcG7KKhlKERpXwep-82u-117" style="edgeStyle=orthogonalEdgeStyle;rounded=0;orthogonalLoop=1;jettySize=auto;html=1;exitX=1;exitY=0.5;exitDx=0;exitDy=0;entryX=0;entryY=0.5;entryDx=0;entryDy=0;sketch=1;curveFitting=1;jiggle=2;" parent="1" source="BcG7KKhlKERpXwep-82u-121" target="BcG7KKhlKERpXwep-82u-116" edge="1">
          <mxGeometry relative="1" as="geometry">
            <Array as="points">
              <mxPoint x="392" y="1634" />
              <mxPoint x="392" y="1585" />
              <mxPoint x="391" y="1585" />
              <mxPoint x="391" y="1570" />
            </Array>
          </mxGeometry>
        </mxCell>
        <mxCell id="BcG7KKhlKERpXwep-82u-118" value="Yes" style="edgeLabel;html=1;align=center;verticalAlign=middle;resizable=0;points=[];" parent="BcG7KKhlKERpXwep-82u-117" vertex="1" connectable="0">
          <mxGeometry x="-0.6401" y="1" relative="1" as="geometry">
            <mxPoint x="-18" y="-56" as="offset" />
          </mxGeometry>
        </mxCell>
        <mxCell id="BcG7KKhlKERpXwep-82u-119" style="edgeStyle=orthogonalEdgeStyle;rounded=0;orthogonalLoop=1;jettySize=auto;html=1;exitX=1;exitY=0.5;exitDx=0;exitDy=0;entryX=0;entryY=0.5;entryDx=0;entryDy=0;sketch=1;curveFitting=1;jiggle=2;" parent="1" source="BcG7KKhlKERpXwep-82u-121" target="BcG7KKhlKERpXwep-82u-134" edge="1">
          <mxGeometry relative="1" as="geometry">
            <mxPoint x="403.66499999999996" y="1698.66" as="targetPoint" />
            <Array as="points">
              <mxPoint x="392" y="1634" />
              <mxPoint x="392" y="1635" />
              <mxPoint x="391" y="1635" />
              <mxPoint x="391" y="1700" />
            </Array>
          </mxGeometry>
        </mxCell>
        <mxCell id="BcG7KKhlKERpXwep-82u-120" value="No" style="edgeLabel;html=1;align=center;verticalAlign=middle;resizable=0;points=[];" parent="BcG7KKhlKERpXwep-82u-119" vertex="1" connectable="0">
          <mxGeometry x="0.4968" y="-1" relative="1" as="geometry">
            <mxPoint x="-18" y="11" as="offset" />
          </mxGeometry>
        </mxCell>
        <mxCell id="BcG7KKhlKERpXwep-82u-121" value="Result.IsFail()" style="rhombus;whiteSpace=wrap;html=1;fillColor=#dae8fc;strokeColor=#6c8ebf;fontSize=9;rounded=0;sketch=1;curveFitting=1;jiggle=2;" parent="1" vertex="1">
          <mxGeometry x="252" y="1604.5" width="120" height="59" as="geometry" />
        </mxCell>
        <mxCell id="BcG7KKhlKERpXwep-82u-122" style="edgeStyle=orthogonalEdgeStyle;rounded=0;orthogonalLoop=1;jettySize=auto;html=1;sketch=1;curveFitting=1;jiggle=2;exitX=1;exitY=0.5;exitDx=0;exitDy=0;entryX=0;entryY=0.5;entryDx=0;entryDy=0;" parent="1" source="BcG7KKhlKERpXwep-82u-134" target="BcG7KKhlKERpXwep-82u-125" edge="1">
          <mxGeometry relative="1" as="geometry">
            <mxPoint x="702" y="1634" as="targetPoint" />
            <mxPoint x="672" y="1634" as="sourcePoint" />
            <Array as="points">
              <mxPoint x="547" y="1700" />
            </Array>
          </mxGeometry>
        </mxCell>
        <mxCell id="BcG7KKhlKERpXwep-82u-123" style="edgeStyle=orthogonalEdgeStyle;rounded=0;orthogonalLoop=1;jettySize=auto;html=1;entryX=0;entryY=0.5;entryDx=0;entryDy=0;sketch=1;curveFitting=1;jiggle=2;exitX=1;exitY=0.5;exitDx=0;exitDy=0;" parent="1" source="BcG7KKhlKERpXwep-82u-139" target="BcG7KKhlKERpXwep-82u-128" edge="1">
          <mxGeometry relative="1" as="geometry">
            <mxPoint x="942" y="1699.529411764706" as="sourcePoint" />
          </mxGeometry>
        </mxCell>
        <mxCell id="BcG7KKhlKERpXwep-82u-124" style="edgeStyle=orthogonalEdgeStyle;rounded=0;orthogonalLoop=1;jettySize=auto;html=1;exitX=1;exitY=0.5;exitDx=0;exitDy=0;sketch=1;curveFitting=1;jiggle=2;" parent="1" source="BcG7KKhlKERpXwep-82u-125" edge="1">
          <mxGeometry relative="1" as="geometry">
            <mxPoint x="697" y="1699.4285714285713" as="targetPoint" />
          </mxGeometry>
        </mxCell>
        <mxCell id="BcG7KKhlKERpXwep-82u-125" value="Efetua PIX para&lt;div&gt;lojista&amp;nbsp;&lt;/div&gt;" style="rounded=1;whiteSpace=wrap;html=1;arcSize=17;fillColor=#dae8fc;strokeColor=#6c8ebf;verticalAlign=middle;textShadow=1;sketch=1;curveFitting=1;jiggle=2;" parent="1" vertex="1">
          <mxGeometry x="552" y="1674.5" width="120" height="50" as="geometry" />
        </mxCell>
        <mxCell id="BcG7KKhlKERpXwep-82u-126" style="edgeStyle=orthogonalEdgeStyle;rounded=0;orthogonalLoop=1;jettySize=auto;html=1;exitX=1;exitY=0.5;exitDx=0;exitDy=0;sketch=1;curveFitting=1;jiggle=2;entryX=0;entryY=0.5;entryDx=0;entryDy=0;" parent="1" source="BcG7KKhlKERpXwep-82u-128" target="BcG7KKhlKERpXwep-82u-129" edge="1">
          <mxGeometry relative="1" as="geometry">
            <mxPoint x="1121" y="1634.1666666666667" as="targetPoint" />
          </mxGeometry>
        </mxCell>
        <mxCell id="BcG7KKhlKERpXwep-82u-127" value="Yes" style="edgeLabel;html=1;align=center;verticalAlign=middle;resizable=0;points=[];" parent="BcG7KKhlKERpXwep-82u-126" vertex="1" connectable="0">
          <mxGeometry x="-0.4435" y="1" relative="1" as="geometry">
            <mxPoint y="-10" as="offset" />
          </mxGeometry>
        </mxCell>
        <mxCell id="BcG7KKhlKERpXwep-82u-128" value="Pagamento&lt;div&gt;&amp;nbsp;Efetuado&amp;nbsp;&lt;span style=&quot;background-color: initial;&quot;&gt;com&lt;/span&gt;&lt;div&gt;Sucesso&lt;/div&gt;&lt;/div&gt;" style="rhombus;whiteSpace=wrap;html=1;fillColor=#dae8fc;strokeColor=#6c8ebf;fontSize=9;rounded=0;sketch=1;curveFitting=1;jiggle=2;" parent="1" vertex="1">
          <mxGeometry x="967" y="1670.5" width="120" height="59" as="geometry" />
        </mxCell>
        <mxCell id="BcG7KKhlKERpXwep-82u-129" value="Monta e envia comprovante&lt;div&gt;Transação&lt;/div&gt;" style="rounded=1;whiteSpace=wrap;html=1;arcSize=17;fillColor=#dae8fc;strokeColor=#6c8ebf;verticalAlign=middle;textShadow=1;sketch=1;curveFitting=1;jiggle=2;" parent="1" vertex="1">
          <mxGeometry x="1150" y="1609" width="120" height="50" as="geometry" />
        </mxCell>
        <mxCell id="BcG7KKhlKERpXwep-82u-130" style="edgeStyle=orthogonalEdgeStyle;rounded=0;orthogonalLoop=1;jettySize=auto;html=1;sketch=1;curveFitting=1;jiggle=2;entryX=1;entryY=0.5;entryDx=0;entryDy=0;exitX=-0.077;exitY=0.866;exitDx=0;exitDy=0;exitPerimeter=0;" parent="1" source="BcG7KKhlKERpXwep-82u-137" target="BcG7KKhlKERpXwep-82u-116" edge="1">
          <mxGeometry relative="1" as="geometry">
            <mxPoint x="697" y="1570" as="sourcePoint" />
            <Array as="points">
              <mxPoint x="998" y="1570" />
            </Array>
          </mxGeometry>
        </mxCell>
        <mxCell id="BcG7KKhlKERpXwep-82u-131" style="edgeStyle=orthogonalEdgeStyle;rounded=0;orthogonalLoop=1;jettySize=auto;html=1;exitX=0.5;exitY=1;exitDx=0;exitDy=0;entryX=0.5;entryY=0;entryDx=0;entryDy=0;sketch=1;curveFitting=1;jiggle=2;" parent="1" source="BcG7KKhlKERpXwep-82u-133" target="BcG7KKhlKERpXwep-82u-109" edge="1">
          <mxGeometry relative="1" as="geometry" />
        </mxCell>
        <mxCell id="BcG7KKhlKERpXwep-82u-132" value="No" style="edgeLabel;html=1;align=center;verticalAlign=middle;resizable=0;points=[];" parent="BcG7KKhlKERpXwep-82u-131" vertex="1" connectable="0">
          <mxGeometry x="-0.3761" y="1" relative="1" as="geometry">
            <mxPoint x="13" y="33" as="offset" />
          </mxGeometry>
        </mxCell>
        <mxCell id="BcG7KKhlKERpXwep-82u-133" value="Result.IsFail()" style="rhombus;whiteSpace=wrap;html=1;fillColor=#dae8fc;strokeColor=#6c8ebf;fontSize=9;rounded=0;sketch=1;curveFitting=1;jiggle=2;" parent="1" vertex="1">
          <mxGeometry x="-263" y="1546" width="120" height="59" as="geometry" />
        </mxCell>
        <mxCell id="BcG7KKhlKERpXwep-82u-134" value="&lt;div&gt;Incluir Pre-boleto&lt;/div&gt;&lt;div&gt;no&amp;nbsp;&lt;span style=&quot;background-color: initial;&quot;&gt;DB&amp;nbsp;&lt;/span&gt;&lt;span style=&quot;background-color: initial;&quot;&gt;Compra&lt;/span&gt;&lt;/div&gt;" style="rounded=1;whiteSpace=wrap;html=1;arcSize=17;fillColor=#dae8fc;strokeColor=#6c8ebf;verticalAlign=middle;textShadow=1;sketch=1;curveFitting=1;jiggle=2;" parent="1" vertex="1">
          <mxGeometry x="405" y="1675" width="120" height="50" as="geometry" />
        </mxCell>
        <mxCell id="BcG7KKhlKERpXwep-82u-135" style="edgeStyle=orthogonalEdgeStyle;rounded=0;orthogonalLoop=1;jettySize=auto;html=1;exitX=0.5;exitY=0;exitDx=0;exitDy=0;sketch=1;curveFitting=1;jiggle=2;entryX=0.5;entryY=1;entryDx=0;entryDy=0;" parent="1" source="BcG7KKhlKERpXwep-82u-128" edge="1">
          <mxGeometry relative="1" as="geometry">
            <mxPoint x="1027" y="1595" as="targetPoint" />
          </mxGeometry>
        </mxCell>
        <mxCell id="BcG7KKhlKERpXwep-82u-136" value="No" style="edgeLabel;html=1;align=center;verticalAlign=middle;resizable=0;points=[];" parent="BcG7KKhlKERpXwep-82u-135" vertex="1" connectable="0">
          <mxGeometry x="-0.7884" y="-2" relative="1" as="geometry">
            <mxPoint x="14" y="-52" as="offset" />
          </mxGeometry>
        </mxCell>
        <mxCell id="BcG7KKhlKERpXwep-82u-137" value="" style="html=1;points=[];perimeter=orthogonalPerimeter;fillColor=strokeColor;rotation=90;sketch=1;curveFitting=1;jiggle=2;" parent="1" vertex="1">
          <mxGeometry x="1024.5" y="1549.5" width="5" height="80" as="geometry" />
        </mxCell>
        <mxCell id="BcG7KKhlKERpXwep-82u-138" value="" style="html=1;points=[];perimeter=orthogonalPerimeter;fillColor=strokeColor;rotation=0;sketch=1;curveFitting=1;jiggle=2;" parent="1" vertex="1">
          <mxGeometry x="698" y="1659" width="5" height="80" as="geometry" />
        </mxCell>
        <mxCell id="BcG7KKhlKERpXwep-82u-139" value="Busca status&amp;nbsp;&lt;div&gt;do pagamento&lt;/div&gt;" style="rounded=1;whiteSpace=wrap;html=1;arcSize=17;fillColor=#dae8fc;strokeColor=#6c8ebf;verticalAlign=middle;textShadow=1;sketch=1;curveFitting=1;jiggle=2;" parent="1" vertex="1">
          <mxGeometry x="798" y="1675" width="120" height="50" as="geometry" />
        </mxCell>
        <mxCell id="BcG7KKhlKERpXwep-82u-140" style="edgeStyle=orthogonalEdgeStyle;rounded=0;orthogonalLoop=1;jettySize=auto;html=1;entryX=0.514;entryY=0.191;entryDx=0;entryDy=0;entryPerimeter=0;startArrow=classic;startFill=1;endArrow=none;endFill=0;sketch=1;curveFitting=1;jiggle=2;" parent="1" source="BcG7KKhlKERpXwep-82u-139" target="BcG7KKhlKERpXwep-82u-138" edge="1">
          <mxGeometry relative="1" as="geometry">
            <Array as="points">
              <mxPoint x="727" y="1699" />
              <mxPoint x="727" y="1674" />
            </Array>
          </mxGeometry>
        </mxCell>
        <mxCell id="BcG7KKhlKERpXwep-82u-141" value="&lt;div&gt;Responde Saldo&amp;nbsp;&lt;/div&gt;&lt;div&gt;disponível&lt;/div&gt;" style="rounded=1;whiteSpace=wrap;html=1;arcSize=17;fillColor=#fff2cc;strokeColor=#d6b656;verticalAlign=middle;textShadow=1;sketch=1;curveFitting=1;jiggle=2;" parent="1" vertex="1">
          <mxGeometry x="-475" y="1829" width="120" height="55" as="geometry" />
        </mxCell>
        <mxCell id="BcG7KKhlKERpXwep-82u-142" value="&lt;div&gt;Registrar boleto&lt;/div&gt;&lt;div&gt;e Confirma débito do&lt;/div&gt;&lt;div&gt;valor da Ordem&lt;/div&gt;&lt;div&gt;Caas&lt;/div&gt;" style="rounded=1;whiteSpace=wrap;html=1;arcSize=17;fontColor=#000000;fillColor=default;strokeColor=#000000;verticalAlign=middle;textShadow=1;sketch=1;curveFitting=1;jiggle=2;" parent="1" vertex="1">
          <mxGeometry x="85" y="1829" width="120" height="55" as="geometry" />
        </mxCell>
        <mxCell id="BcG7KKhlKERpXwep-82u-143" value="&lt;div&gt;Efetuar o pagamento&amp;nbsp;&lt;/div&gt;&lt;div&gt;e para o lojista&lt;/div&gt;&lt;div&gt;&lt;span style=&quot;background-color: initial;&quot;&gt;Baas&lt;/span&gt;&lt;/div&gt;" style="rounded=1;whiteSpace=wrap;html=1;arcSize=17;fontColor=#000000;fillColor=default;strokeColor=#000000;verticalAlign=middle;textShadow=1;sketch=1;curveFitting=1;jiggle=2;" parent="1" vertex="1">
          <mxGeometry x="667" y="1834" width="120" height="55" as="geometry" />
        </mxCell>
        <mxCell id="BcG7KKhlKERpXwep-82u-144" value="&lt;div&gt;Busca status&lt;/div&gt;&lt;div&gt;do pagamento&amp;nbsp;&lt;/div&gt;&lt;div&gt;no&lt;/div&gt;&lt;div&gt;&lt;span style=&quot;background-color: initial;&quot;&gt;Baas&lt;/span&gt;&lt;/div&gt;" style="rounded=1;whiteSpace=wrap;html=1;arcSize=17;fontColor=#000000;fillColor=default;strokeColor=#000000;verticalAlign=middle;textShadow=1;sketch=1;curveFitting=1;jiggle=2;" parent="1" vertex="1">
          <mxGeometry x="798" y="1834" width="120" height="55" as="geometry" />
        </mxCell>
        <mxCell id="BcG7KKhlKERpXwep-82u-145" style="edgeStyle=orthogonalEdgeStyle;rounded=0;orthogonalLoop=1;jettySize=auto;html=1;sketch=1;curveFitting=1;jiggle=2;" parent="1" source="BcG7KKhlKERpXwep-82u-146" edge="1">
          <mxGeometry relative="1" as="geometry">
            <mxPoint x="1387" y="2093" as="targetPoint" />
          </mxGeometry>
        </mxCell>
        <mxCell id="BcG7KKhlKERpXwep-82u-146" value="&lt;div&gt;Entrega&lt;/div&gt;&lt;div&gt;Produto/Serviço&lt;/div&gt;" style="rounded=1;whiteSpace=wrap;html=1;arcSize=17;fontColor=#000000;fillColor=default;strokeColor=#000000;verticalAlign=middle;textShadow=1;sketch=1;curveFitting=1;jiggle=2;" parent="1" vertex="1">
          <mxGeometry x="1241" y="2065.5" width="120" height="55" as="geometry" />
        </mxCell>
        <mxCell id="BcG7KKhlKERpXwep-82u-147" value="" style="ellipse;html=1;shape=endState;fillColor=strokeColor;" parent="1" vertex="1">
          <mxGeometry x="1387" y="2078" width="30" height="30" as="geometry" />
        </mxCell>
        <mxCell id="BcG7KKhlKERpXwep-82u-148" style="edgeStyle=orthogonalEdgeStyle;rounded=0;orthogonalLoop=1;jettySize=auto;html=1;entryX=0.5;entryY=0;entryDx=0;entryDy=0;sketch=1;curveFitting=1;jiggle=2;" parent="1" source="BcG7KKhlKERpXwep-82u-89" target="BcG7KKhlKERpXwep-82u-104" edge="1">
          <mxGeometry relative="1" as="geometry">
            <mxPoint x="-440" y="1625" as="targetPoint" />
          </mxGeometry>
        </mxCell>
        <mxCell id="BcG7KKhlKERpXwep-82u-149" style="edgeStyle=orthogonalEdgeStyle;rounded=0;orthogonalLoop=1;jettySize=auto;html=1;exitX=1;exitY=0.5;exitDx=0;exitDy=0;entryX=0;entryY=0.5;entryDx=0;entryDy=0;sketch=1;curveFitting=1;jiggle=2;dashed=1;dashPattern=8 8;" parent="1" source="BcG7KKhlKERpXwep-82u-141" target="BcG7KKhlKERpXwep-82u-133" edge="1">
          <mxGeometry relative="1" as="geometry">
            <mxPoint x="-288.9549999999999" y="1625.692" as="targetPoint" />
          </mxGeometry>
        </mxCell>
        <mxCell id="BcG7KKhlKERpXwep-82u-150" style="edgeStyle=orthogonalEdgeStyle;rounded=0;orthogonalLoop=1;jettySize=auto;html=1;entryX=0.519;entryY=-0.085;entryDx=0;entryDy=0;entryPerimeter=0;sketch=1;curveFitting=1;jiggle=2;" parent="1" source="BcG7KKhlKERpXwep-82u-114" target="BcG7KKhlKERpXwep-82u-141" edge="1">
          <mxGeometry relative="1" as="geometry" />
        </mxCell>
        <mxCell id="BcG7KKhlKERpXwep-82u-151" style="edgeStyle=orthogonalEdgeStyle;rounded=0;orthogonalLoop=1;jettySize=auto;html=1;entryX=0.5;entryY=0;entryDx=0;entryDy=0;exitX=0.5;exitY=1;exitDx=0;exitDy=0;sketch=1;curveFitting=1;jiggle=2;" parent="1" source="BcG7KKhlKERpXwep-82u-113" target="BcG7KKhlKERpXwep-82u-142" edge="1">
          <mxGeometry relative="1" as="geometry">
            <mxPoint x="185.00000000000045" y="1865" as="targetPoint" />
          </mxGeometry>
        </mxCell>
        <mxCell id="BcG7KKhlKERpXwep-82u-152" style="edgeStyle=orthogonalEdgeStyle;rounded=0;orthogonalLoop=1;jettySize=auto;html=1;entryX=-0.026;entryY=0.501;entryDx=0;entryDy=0;exitX=1;exitY=0.5;exitDx=0;exitDy=0;dashed=1;dashPattern=8 8;entryPerimeter=0;sketch=1;curveFitting=1;jiggle=2;" parent="1" source="BcG7KKhlKERpXwep-82u-142" target="BcG7KKhlKERpXwep-82u-121" edge="1">
          <mxGeometry relative="1" as="geometry">
            <Array as="points">
              <mxPoint x="232" y="1856" />
              <mxPoint x="232" y="1634" />
            </Array>
          </mxGeometry>
        </mxCell>
        <mxCell id="BcG7KKhlKERpXwep-82u-153" style="edgeStyle=orthogonalEdgeStyle;rounded=0;orthogonalLoop=1;jettySize=auto;html=1;exitX=0.5;exitY=0;exitDx=0;exitDy=0;entryX=0.5;entryY=1;entryDx=0;entryDy=0;sketch=1;curveFitting=1;jiggle=2;" parent="1" source="BcG7KKhlKERpXwep-82u-110" target="BcG7KKhlKERpXwep-82u-95" edge="1">
          <mxGeometry relative="1" as="geometry">
            <mxPoint x="-11.142857142856883" y="1495" as="targetPoint" />
          </mxGeometry>
        </mxCell>
        <mxCell id="BcG7KKhlKERpXwep-82u-154" style="edgeStyle=orthogonalEdgeStyle;rounded=0;orthogonalLoop=1;jettySize=auto;html=1;exitX=0.5;exitY=0;exitDx=0;exitDy=0;entryX=0.5;entryY=1;entryDx=0;entryDy=0;sketch=1;curveFitting=1;jiggle=2;" parent="1" source="BcG7KKhlKERpXwep-82u-116" target="BcG7KKhlKERpXwep-82u-98" edge="1">
          <mxGeometry relative="1" as="geometry" />
        </mxCell>
        <mxCell id="BcG7KKhlKERpXwep-82u-155" style="edgeStyle=orthogonalEdgeStyle;rounded=0;orthogonalLoop=1;jettySize=auto;html=1;sketch=1;curveFitting=1;jiggle=2;entryX=0.5;entryY=1;entryDx=0;entryDy=0;" parent="1" source="BcG7KKhlKERpXwep-82u-129" target="BcG7KKhlKERpXwep-82u-93" edge="1">
          <mxGeometry relative="1" as="geometry">
            <mxPoint x="1184" y="1455" as="targetPoint" />
          </mxGeometry>
        </mxCell>
        <mxCell id="BcG7KKhlKERpXwep-82u-156" style="edgeStyle=orthogonalEdgeStyle;rounded=0;orthogonalLoop=1;jettySize=auto;html=1;exitX=0.154;exitY=0.155;exitDx=0;exitDy=0;entryX=0.5;entryY=1;entryDx=0;entryDy=0;sketch=1;curveFitting=1;jiggle=2;exitPerimeter=0;" parent="1" source="BcG7KKhlKERpXwep-82u-137" target="BcG7KKhlKERpXwep-82u-102" edge="1">
          <mxGeometry relative="1" as="geometry">
            <mxPoint x="1027" y="1545" as="sourcePoint" />
          </mxGeometry>
        </mxCell>
        <mxCell id="BcG7KKhlKERpXwep-82u-157" style="edgeStyle=orthogonalEdgeStyle;rounded=0;orthogonalLoop=1;jettySize=auto;html=1;entryX=0.5;entryY=0;entryDx=0;entryDy=0;exitX=0.629;exitY=0.898;exitDx=0;exitDy=0;exitPerimeter=0;sketch=1;curveFitting=1;jiggle=2;" parent="1" source="BcG7KKhlKERpXwep-82u-138" target="BcG7KKhlKERpXwep-82u-143" edge="1">
          <mxGeometry relative="1" as="geometry">
            <mxPoint x="612" y="1815" as="targetPoint" />
            <Array as="points">
              <mxPoint x="727" y="1731" />
            </Array>
          </mxGeometry>
        </mxCell>
        <mxCell id="BcG7KKhlKERpXwep-82u-158" style="edgeStyle=orthogonalEdgeStyle;rounded=0;orthogonalLoop=1;jettySize=auto;html=1;entryX=0.25;entryY=0;entryDx=0;entryDy=0;sketch=1;curveFitting=1;jiggle=2;exitX=0.25;exitY=1;exitDx=0;exitDy=0;" parent="1" source="BcG7KKhlKERpXwep-82u-139" target="BcG7KKhlKERpXwep-82u-144" edge="1">
          <mxGeometry relative="1" as="geometry">
            <mxPoint x="858" y="1835" as="targetPoint" />
          </mxGeometry>
        </mxCell>
        <mxCell id="BcG7KKhlKERpXwep-82u-159" style="edgeStyle=orthogonalEdgeStyle;rounded=0;orthogonalLoop=1;jettySize=auto;html=1;entryX=0.75;entryY=1;entryDx=0;entryDy=0;exitX=0.75;exitY=0;exitDx=0;exitDy=0;dashed=1;dashPattern=8 8;sketch=1;curveFitting=1;jiggle=2;" parent="1" source="BcG7KKhlKERpXwep-82u-144" target="BcG7KKhlKERpXwep-82u-139" edge="1">
          <mxGeometry relative="1" as="geometry" />
        </mxCell>
        <mxCell id="BcG7KKhlKERpXwep-82u-160" style="edgeStyle=orthogonalEdgeStyle;rounded=0;orthogonalLoop=1;jettySize=auto;html=1;" parent="1" source="BcG7KKhlKERpXwep-82u-161" edge="1">
          <mxGeometry relative="1" as="geometry">
            <mxPoint x="-119" y="1422.5" as="targetPoint" />
          </mxGeometry>
        </mxCell>
        <mxCell id="BcG7KKhlKERpXwep-82u-161" value="&lt;div&gt;Exibe transação&amp;nbsp;&lt;/div&gt;&lt;div&gt;Não Autorizada&lt;/div&gt;&lt;div&gt;Erro:&amp;nbsp;&lt;span style=&quot;background-color: initial;&quot;&gt;Saldo não&amp;nbsp;&lt;/span&gt;&lt;/div&gt;&lt;div&gt;encontrado&lt;/div&gt;" style="rounded=1;whiteSpace=wrap;html=1;arcSize=17;fontColor=#000000;fillColor=default;strokeColor=#000000;verticalAlign=middle;textShadow=1;sketch=1;curveFitting=1;jiggle=2;" parent="1" vertex="1">
          <mxGeometry x="-263" y="1395" width="120" height="55" as="geometry" />
        </mxCell>
        <mxCell id="BcG7KKhlKERpXwep-82u-162" style="edgeStyle=orthogonalEdgeStyle;rounded=0;orthogonalLoop=1;jettySize=auto;html=1;entryX=0.5;entryY=1;entryDx=0;entryDy=0;sketch=1;curveFitting=1;jiggle=2;exitX=0.5;exitY=0;exitDx=0;exitDy=0;" parent="1" source="BcG7KKhlKERpXwep-82u-133" target="BcG7KKhlKERpXwep-82u-161" edge="1">
          <mxGeometry relative="1" as="geometry">
            <mxPoint x="-203" y="1575" as="sourcePoint" />
            <mxPoint x="-227" y="1480" as="targetPoint" />
          </mxGeometry>
        </mxCell>
        <mxCell id="BcG7KKhlKERpXwep-82u-163" value="Yes" style="edgeLabel;html=1;align=center;verticalAlign=middle;resizable=0;points=[];" parent="BcG7KKhlKERpXwep-82u-162" vertex="1" connectable="0">
          <mxGeometry x="-0.259" y="-3" relative="1" as="geometry">
            <mxPoint x="11" y="-25" as="offset" />
          </mxGeometry>
        </mxCell>
        <mxCell id="BcG7KKhlKERpXwep-82u-164" value="&lt;div&gt;Remover&amp;nbsp; Pre-boleto&lt;/div&gt;&lt;div&gt;no&amp;nbsp;&lt;span style=&quot;background-color: initial;&quot;&gt;DB&amp;nbsp;&lt;/span&gt;&lt;span style=&quot;background-color: initial;&quot;&gt;Compra&lt;/span&gt;&lt;/div&gt;" style="rounded=1;whiteSpace=wrap;html=1;arcSize=17;fillColor=#dae8fc;strokeColor=#6c8ebf;verticalAlign=middle;textShadow=1;sketch=1;curveFitting=1;jiggle=2;" parent="1" vertex="1">
          <mxGeometry x="1483" y="483.5" width="120" height="50" as="geometry" />
        </mxCell>
        <mxCell id="BcG7KKhlKERpXwep-82u-165" style="edgeStyle=orthogonalEdgeStyle;rounded=0;orthogonalLoop=1;jettySize=auto;html=1;entryX=0.5;entryY=0;entryDx=0;entryDy=0;sketch=1;curveFitting=1;jiggle=2;" parent="1" source="BcG7KKhlKERpXwep-82u-166" target="BcG7KKhlKERpXwep-82u-164" edge="1">
          <mxGeometry relative="1" as="geometry" />
        </mxCell>
        <mxCell id="BcG7KKhlKERpXwep-82u-166" value="&lt;div&gt;&lt;span style=&quot;background-color: initial;&quot;&gt;Processo&lt;/span&gt;&lt;br&gt;&lt;/div&gt;&lt;div&gt;&lt;div&gt;Rollback&lt;/div&gt;&lt;/div&gt;" style="rounded=1;whiteSpace=wrap;html=1;arcSize=17;fillColor=#dae8fc;strokeColor=#6c8ebf;verticalAlign=middle;textShadow=1;sketch=1;curveFitting=1;jiggle=2;" parent="1" vertex="1">
          <mxGeometry x="1483" y="366" width="120" height="50" as="geometry" />
        </mxCell>
        <mxCell id="BcG7KKhlKERpXwep-82u-167" value="&lt;div&gt;Remoção boleto&lt;/div&gt;&lt;div&gt;e Confirma débito do&lt;/div&gt;&lt;div&gt;valor da Ordem&lt;/div&gt;&lt;div&gt;Caas&lt;/div&gt;" style="rounded=1;whiteSpace=wrap;html=1;arcSize=17;fontColor=#000000;fillColor=default;strokeColor=#000000;verticalAlign=middle;textShadow=1;sketch=1;curveFitting=1;jiggle=2;" parent="1" vertex="1">
          <mxGeometry x="1478" y="634" width="120" height="55" as="geometry" />
        </mxCell>
        <mxCell id="BcG7KKhlKERpXwep-82u-168" style="edgeStyle=orthogonalEdgeStyle;rounded=0;orthogonalLoop=1;jettySize=auto;html=1;entryX=0.5;entryY=0;entryDx=0;entryDy=0;sketch=1;curveFitting=1;jiggle=2;exitX=0.458;exitY=1.03;exitDx=0;exitDy=0;exitPerimeter=0;" parent="1" source="BcG7KKhlKERpXwep-82u-164" target="BcG7KKhlKERpXwep-82u-167" edge="1">
          <mxGeometry relative="1" as="geometry">
            <mxPoint x="1512.2222222222226" y="630" as="targetPoint" />
            <mxPoint x="1483" y="580" as="sourcePoint" />
          </mxGeometry>
        </mxCell>
        <mxCell id="BcG7KKhlKERpXwep-82u-169" value="&lt;div&gt;Remover&amp;nbsp; Pre-boleto&lt;/div&gt;&lt;div&gt;no&amp;nbsp;&lt;span style=&quot;background-color: initial;&quot;&gt;DB&amp;nbsp;&lt;/span&gt;&lt;span style=&quot;background-color: initial;&quot;&gt;Compra&lt;/span&gt;&lt;/div&gt;" style="rounded=1;whiteSpace=wrap;html=1;arcSize=17;fillColor=#dae8fc;strokeColor=#6c8ebf;verticalAlign=middle;textShadow=1;sketch=1;curveFitting=1;jiggle=2;" parent="1" vertex="1">
          <mxGeometry x="1484" y="1662.5" width="120" height="50" as="geometry" />
        </mxCell>
        <mxCell id="BcG7KKhlKERpXwep-82u-170" style="edgeStyle=orthogonalEdgeStyle;rounded=0;orthogonalLoop=1;jettySize=auto;html=1;entryX=0.5;entryY=0;entryDx=0;entryDy=0;sketch=1;curveFitting=1;jiggle=2;" parent="1" source="BcG7KKhlKERpXwep-82u-171" target="BcG7KKhlKERpXwep-82u-169" edge="1">
          <mxGeometry relative="1" as="geometry" />
        </mxCell>
        <mxCell id="BcG7KKhlKERpXwep-82u-171" value="&lt;div&gt;&lt;span style=&quot;background-color: initial;&quot;&gt;Processo&lt;/span&gt;&lt;br&gt;&lt;/div&gt;&lt;div&gt;&lt;div&gt;Rollback&lt;/div&gt;&lt;/div&gt;" style="rounded=1;whiteSpace=wrap;html=1;arcSize=17;fillColor=#dae8fc;strokeColor=#6c8ebf;verticalAlign=middle;textShadow=1;sketch=1;curveFitting=1;jiggle=2;" parent="1" vertex="1">
          <mxGeometry x="1484" y="1545" width="120" height="50" as="geometry" />
        </mxCell>
        <mxCell id="BcG7KKhlKERpXwep-82u-172" value="&lt;div&gt;Remoção boleto&lt;/div&gt;&lt;div&gt;e Confirma débito do&lt;/div&gt;&lt;div&gt;valor da Ordem&lt;/div&gt;&lt;div&gt;Caas&lt;/div&gt;" style="rounded=1;whiteSpace=wrap;html=1;arcSize=17;fontColor=#000000;fillColor=default;strokeColor=#000000;verticalAlign=middle;textShadow=1;sketch=1;curveFitting=1;jiggle=2;" parent="1" vertex="1">
          <mxGeometry x="1479" y="1813" width="120" height="55" as="geometry" />
        </mxCell>
        <mxCell id="BcG7KKhlKERpXwep-82u-173" style="edgeStyle=orthogonalEdgeStyle;rounded=0;orthogonalLoop=1;jettySize=auto;html=1;entryX=0.5;entryY=0;entryDx=0;entryDy=0;sketch=1;curveFitting=1;jiggle=2;exitX=0.458;exitY=1.03;exitDx=0;exitDy=0;exitPerimeter=0;" parent="1" source="BcG7KKhlKERpXwep-82u-169" target="BcG7KKhlKERpXwep-82u-172" edge="1">
          <mxGeometry relative="1" as="geometry">
            <mxPoint x="1513.2222222222226" y="1809" as="targetPoint" />
            <mxPoint x="1484" y="1759" as="sourcePoint" />
          </mxGeometry>
        </mxCell>
        <mxCell id="BcG7KKhlKERpXwep-82u-174" value="" style="ellipse;html=1;shape=startState;fillColor=#000000;strokeColor=#000000;textShadow=1;" parent="1" vertex="1">
          <mxGeometry x="-687" y="1413" width="30" height="30" as="geometry" />
        </mxCell>
        <mxCell id="BcG7KKhlKERpXwep-82u-175" value="" style="edgeStyle=orthogonalEdgeStyle;html=1;verticalAlign=bottom;endArrow=open;endSize=8;strokeColor=#000000;rounded=0;textShadow=1;sketch=1;curveFitting=1;jiggle=2;exitX=0.9;exitY=0.502;exitDx=0;exitDy=0;exitPerimeter=0;entryX=0;entryY=0.5;entryDx=0;entryDy=0;" parent="1" source="BcG7KKhlKERpXwep-82u-174" target="BcG7KKhlKERpXwep-82u-89" edge="1">
          <mxGeometry relative="1" as="geometry">
            <mxPoint x="-637" y="1428" as="targetPoint" />
          </mxGeometry>
        </mxCell>
      </root>
    </mxGraphModel>
  </diagram>
</mxfile>
